<svg x="881.24" y="365" width="77.78" height="22.12" viewBox="0 0 618.81 155" preserveAspectRatio="xMidYMid meet"><g transform="matrix(1.3333 0 0 -1.3333 0 206.44)"><g transform="scale(.1)"><path d="m3765.8 1226.1c-154.89-82.4-268.66-219.7-270.61-349.27 2.33-153.82 162.31-318.56 361.56-389.34-16.91 122.74-90.6 617.91-90.95 738.61" fill="#484995"/><path d="m4322.8 1113.5c-141.08 46.6-306.29 12.98-422.25-100.97-40.1-40.791-70.23-87.701-90.43-137.49 97.68-135.02 281.7-231.4 449.4-231.4 23.79 0 46.7 1.786 68.71 5.125 39.35 63.77 63.34 140.9 63.47 227.99-0.15 91.07-26.29 171.35-68.9 236.74" fill="#2a2e72"/><path d="m4320.6 1111.2c55.55-18.35 84.39-59.9 127.85-103.41 48.38-48.39 110.8-103.08 137.07-174.89 35.96 67.519 55.57 151.63 55.57 249.77 0 271.84-128.42 575.8-543.67 425.96-206.49-74.51-294.89-187.62-331.66-282.55 44.86 23.87 99.18 25.02 149.2 38.15 151.13 40.53 313.98-12.38 405.64-153.03" fill="#8e8bcd"/><path d="m4326 651.1c-113.42-139.3-260.17-217.78-414.35-176.41-17.66 4.629-37.8 6.7-54.93 12.809 11.51-15.82 24.38-30.891 38.6-45.09 152.4-152.39 472.95-216.72 633.92-57.84 108.42 109.87 112.85 294.04 56.29 448.36-53.53-100.61-158.38-148.4-259.53-181.84" fill="#4f57b0"/><g fill="#363987"><path d="m4320.6 1111.2c42.23-64.74 68.09-144.21 68.24-234.39-0.13-86.219-23.88-162.59-62.85-225.74 116.06 17.617 206 81.23 259.53 181.84-26.27 71.808-65.74 137.17-114.12 185.57-43.46 43.5-95.25 74.38-150.8 92.73"/><path d="m3744.2 1052.7c4.32-62.97 29.57-123.41 68.77-177.6 20.04 49.317 49.87 95.758 89.55 136.15 114.83 112.81 278.4 146.11 418.07 99.96-91.66 140.65-260.57 211.71-411.7 171.18-50.02-13.14-98.28-32.43-143.14-56.3-37.17-95.99-21.55-173.39-21.55-173.39"/><path d="m4326 651.1c-21.82-3.301-44.49-5.059-68.05-5.059-166.01 0-348.22 95.402-444.96 229.08-52.11-128.35-37.54-276.15 43.73-387.62 17.13-6.109 34.53-11.559 52.19-16.211 154.16-41.34 326.76 33.52 417.09 179.81"/></g><g style="fill:light-dark(#484995,#ffffff)"><path d="m103.12 83.25h20.078c20.977 0 34.277 11.5 34.277 28.859 0 19.629-14.218 28.211-34.96 28.422-9.473 0-16.25-0.902-19.395-1.801zm-19.629 69.23c9.9219 2.04 24.141 3.168 37.664 3.168 20.988 0 34.524-3.828 43.996-12.398 7.664-6.781 11.953-17.148 11.953-28.871 0-20.078-12.636-33.379-28.652-38.809v-0.6601c11.738-4.0704 18.731-14.91 22.332-30.691 4.965-21.207 8.566-35.859 11.731-41.738h-20.293c-2.493 4.5195-5.872 17.391-10.157 36.328-4.511 20.98-12.636 28.871-30.461 29.551h-18.484v-65.879h-19.629v150"/><path d="m313.83 67.68c0.215 12.641-5.195 32.25-27.527 32.25-20.071 0-28.879-18.48-30.449-32.25zm-58.203-14.219c0.449-26.832 17.598-37.891 37.441-37.891 14.207 0 22.786 2.4805 30.235 5.6485l3.379-14.219c-6.992-3.1484-18.946-7-36.321-7-33.613 0-53.679 22.352-53.679 55.281 0 32.93 19.394 58.86 51.203 58.86 35.633 0 45.105-31.34 45.105-51.422 0-4.0586-0.449-7.2071-0.675-9.2579h-76.688"/><path d="m397.91 162.64h19.844v-160.16h-19.844v160.16"/><path d="m489.45 2.4805v109.18h19.844v-109.18zm22.11 139.87c0.214-6.782-4.747-12.192-12.637-12.192-6.992 0-11.953 5.41-11.953 12.192 0 6.988 5.183 12.398 12.402 12.398 7.441 0 12.188-5.41 12.188-12.398"/><path d="m638.36 58.211c-21.66 0.4493-46.242-3.3828-46.242-24.59 0-12.852 8.567-18.949 18.723-18.949 14.219 0 23.23 9.0273 26.394 18.258 0.676 2.0391 1.125 4.3008 1.125 6.332zm19.18-29.551c0-9.4805 0.449-18.731 1.797-26.18h-18.047l-1.582 13.77h-0.664c-6.094-8.5703-17.82-16.25-33.391-16.25-22.105 0-33.386 15.57-33.386 31.371 0 26.391 23.457 40.82 65.644 40.609v2.2383c0 9.0312-2.48 25.262-24.812 25.262-10.149 0-20.754-3.1524-28.43-8.1094l-4.512 13.07c9.024 5.879 22.11 9.7 35.879 9.7 33.379 0 41.504-22.77 41.504-44.66v-40.82"/><path d="m748.03 46.25c0-2.4805 0.45-4.9609 0.899-7.2187 3.828-13.75 15.344-23.223 29.773-23.223 20.754 0 33.156 16.91 33.156 41.953 0 21.867-11.269 40.598-32.48 40.598-13.535 0-26.16-9.25-30.215-24.371-0.461-2.25-1.133-4.957-1.133-8.1094zm-19.629 116.39h19.629v-68.571h0.45c6.992 12.18 19.628 20.071 37.214 20.071 27.075 0 46.243-22.551 46.02-55.719 0-39.024-24.582-58.422-48.957-58.422-15.781 0-28.418 6.1016-36.543 20.531h-0.676l-0.894-18.051h-17.141c0.449 7.4492 0.898 18.5 0.898 28.211v131.95"/><path d="m897.3 162.64h19.843v-160.16h-19.843v160.16"/><path d="m1059.8 67.68c0.22 12.641-5.2 32.25-27.52 32.25-20.08 0-28.88-18.48-30.45-32.25zm-58.21-14.219c0.46-26.832 17.6-37.891 37.45-37.891 14.21 0 22.79 2.4805 30.23 5.6485l3.38-14.219c-6.99-3.1484-18.95-7-36.31-7-33.61 0-53.692 22.352-53.692 55.281 0 32.93 19.402 58.86 51.212 58.86 35.63 0 45.11-31.34 45.11-51.422 0-4.0586-0.45-7.2071-0.68-9.2579h-76.7"/><path d="m1234.1 26.41c8.79-5.4297 21.65-9.9414 35.18-9.9414 20.07 0 31.8 10.602 31.8 25.941 0 14.219-8.11 22.34-28.64 30.23-24.81 8.8086-40.16 21.66-40.16 43.089 0 23.688 19.63 41.29 49.18 41.29 15.57 0 26.84-3.622 33.61-7.461l-5.41-16.02c-4.96 2.711-15.11 7.231-28.88 7.231-20.74 0-28.65-12.411-28.65-22.782 0-14.218 9.26-21.207 30.23-29.328 25.73-9.9297 38.8-22.332 38.8-44.672 0-23.457-17.37-43.988-53.23-43.988-14.67 0-30.68 4.5195-38.8 9.9297l4.97 16.481"/><path d="m1476.6 32.27c0-11.289 0.22-21.211 0.9-29.789h-17.6l-1.13 17.84h-0.45c-5.19-8.8086-16.69-20.32-36.09-20.32-17.14 0-37.67 9.4805-37.67 47.84v63.82h19.85v-60.441c0-20.77 6.31-34.75 24.36-34.75 13.31 0 22.56 9.2617 26.17 18.051 1.13 2.9297 1.81 6.5391 1.81 10.152v66.988h19.85v-79.39"/><path d="m1545.3 22.801c5.88-3.8516 16.25-7.8906 26.17-7.8906 14.45 0 21.21 7.1992 21.21 16.23 0 9.4688-5.64 14.668-20.31 20.078-19.61 6.9921-28.86 17.812-28.86 30.891 0 17.602 14.21 32.032 37.67 32.032 11.06 0 20.74-3.141 26.84-6.75l-4.96-14.442c-4.29 2.6992-12.18 6.3125-22.33 6.3125-11.74 0-18.28-6.7617-18.28-14.883 0-9.0195 6.54-13.09 20.76-18.5 18.95-7.2187 28.64-16.699 28.64-32.949 0-19.16-14.89-32.93-40.83-32.93-11.95 0-23 3.168-30.68 7.6797l4.96 15.121"/><path d="m1702.6 137.84v-26.18h28.42v-15.109h-28.42v-58.871c0-13.539 3.83-21.211 14.88-21.211 5.42 0 8.58 0.4492 11.5 1.371l0.9-14.91c-3.82-1.5586-9.92-2.9297-17.57-2.9297-9.26 0-16.7 3.168-21.45 8.5781-5.63 5.8633-7.67 15.562-7.67 28.422v59.551h-16.91v15.109h16.91v20.078l19.41 6.102"/><path d="m1851.8 58.211c-21.65 0.4493-46.25-3.3828-46.25-24.59 0-12.852 8.58-18.949 18.72-18.949 14.22 0 23.24 9.0273 26.4 18.258 0.67 2.0391 1.13 4.3008 1.13 6.332zm19.17-29.551c0-9.4805 0.45-18.731 1.8-26.18h-18.05l-1.57 13.77h-0.68c-6.09-8.5703-17.81-16.25-33.38-16.25-22.11 0-33.39 15.57-33.39 31.371 0 26.391 23.47 40.82 65.64 40.609v2.2383c0 9.0312-2.48 25.262-24.81 25.262-10.15 0-20.76-3.1524-28.42-8.1094l-4.51 13.07c9.02 5.879 22.1 9.7 35.86 9.7 33.38 0 41.51-22.77 41.51-44.66v-40.82"/><path d="m1941.7 2.4805v109.18h19.85v-109.18zm22.1 139.87c0.23-6.782-4.73-12.192-12.63-12.192-6.99 0-11.95 5.41-11.95 12.192 0 6.988 5.18 12.398 12.4 12.398 7.45 0 12.18-5.41 12.18-12.398"/><path d="m2033.1 82.109c0 11.289-0.23 20.532-0.9 29.551h17.59l1.13-18.039h0.45c5.41 10.391 18.04 20.52 36.09 20.52 15.11 0 38.58-9.02 38.58-46.461v-65.199h-19.86v62.949c0 17.582-6.53 32.25-25.26 32.25-13.09 0-23.23-9.2578-26.62-20.289-0.9-2.4804-1.35-5.8593-1.35-9.2617v-65.648h-19.85v79.629"/><path d="m2254.7 58.211c-21.65 0.4493-46.24-3.3828-46.24-24.59 0-12.852 8.57-18.949 18.72-18.949 14.22 0 23.24 9.0273 26.39 18.258 0.68 2.0391 1.13 4.3008 1.13 6.332zm19.18-29.551c0-9.4805 0.45-18.731 1.79-26.18h-18.04l-1.57 13.77h-0.68c-6.09-8.5703-17.82-16.25-33.38-16.25-22.12 0-33.4 15.57-33.4 31.371 0 26.391 23.47 40.82 65.65 40.609v2.2383c0 9.0312-2.48 25.262-24.82 25.262-10.14 0-20.75-3.1524-28.41-8.1094l-4.52 13.07c9.03 5.879 22.11 9.7 35.87 9.7 33.38 0 41.51-22.77 41.51-44.66v-40.82"/><path d="m2364.3 46.25c0-2.4805 0.45-4.9609 0.9-7.2187 3.83-13.75 15.33-23.223 29.76-23.223 20.77 0 33.17 16.91 33.17 41.953 0 21.867-11.27 40.598-32.48 40.598-13.54 0-26.17-9.25-30.24-24.371-0.43-2.25-1.11-4.957-1.11-8.1094zm-19.63 116.39h19.63v-68.571h0.45c6.99 12.18 19.63 20.071 37.23 20.071 27.05 0 46.23-22.551 46.01-55.719 0-39.024-24.59-58.422-48.96-58.422-15.78 0-28.42 6.1016-36.53 20.531h-0.68l-0.9-18.051h-17.15c0.45 7.4492 0.9 18.5 0.9 28.211v131.95"/><path d="m2513.6 162.64h19.84v-160.16h-19.84v160.16"/><path d="m2676.1 67.68c0.23 12.641-5.2 32.25-27.52 32.25-20.08 0-28.87-18.48-30.45-32.25zm-58.2-14.219c0.45-26.832 17.59-37.891 37.46-37.891 14.2 0 22.77 2.4805 30.21 5.6485l3.38-14.219c-6.99-3.1484-18.94-7-36.31-7-33.61 0-53.69 22.352-53.69 55.281 0 32.93 19.4 58.86 51.21 58.86 35.65 0 45.12-31.34 45.12-51.422 0-4.0586-0.47-7.2071-0.68-9.2579h-76.7"/><path d="m2959.4 7.4492c-7.23-3.5977-21.66-7.4492-40.16-7.4492-42.85 0-75.11 27.309-75.11 77.148 0 47.602 32.26 79.872 79.39 79.872 18.95 0 30.92-4.071 36.11-6.782l-4.76-16.019c-7.42 3.621-18.03 6.312-30.67 6.312-35.64 0-59.31-22.769-59.31-62.691 0-37.23 21.42-61.141 58.42-61.141 11.95 0 24.14 2.4805 32.03 6.3125l4.06-15.562"/><path d="m3031.8 56.859c0-23.93 13.77-41.949 33.17-41.949 18.94 0 33.16 17.809 33.16 42.398 0 18.5-9.24 41.953-32.71 41.953-23.46 0-33.62-21.66-33.62-42.402zm86.62 1.1094c0-40.367-27.96-57.969-54.35-57.969-29.55 0-52.35 21.66-52.35 56.18 0 36.539 23.93 57.961 54.16 57.961 31.35 0 52.54-22.77 52.54-56.172"/><path d="m3183.4 82.109c0 11.289-0.23 20.532-0.91 29.551h17.59l1.14-18.039h0.45c5.41 10.391 18.04 20.52 36.09 20.52 15.1 0 38.57-9.02 38.57-46.461v-65.199h-19.84v62.949c0 17.582-6.54 32.25-25.27 32.25-13.09 0-23.23-9.2578-26.62-20.289-0.9-2.4804-1.35-5.8593-1.35-9.2617v-65.648h-19.85v79.629"/><path d="m3347.2 82.109c0 11.289-0.23 20.532-0.92 29.551h17.6l1.13-18.039h0.45c5.41 10.391 18.05 20.52 36.1 20.52 15.11 0 38.57-9.02 38.57-46.461v-65.199h-19.84v62.949c0 17.582-6.55 32.25-25.28 32.25-13.08 0-23.24-9.2578-26.6-20.289-0.92-2.4804-1.36-5.8593-1.36-9.2617v-65.648h-19.85v79.629"/><path d="m3581.8 67.68c0.22 12.641-5.19 32.25-27.52 32.25-20.08 0-28.89-18.48-30.45-32.25zm-58.2-14.219c0.47-26.832 17.6-37.891 37.44-37.891 14.22 0 22.79 2.4805 30.23 5.6485l3.38-14.219c-6.97-3.1484-18.94-7-36.31-7-33.61 0-53.69 22.352-53.69 55.281 0 32.93 19.42 58.86 51.21 58.86 35.63 0 45.1-31.34 45.1-51.422 0-4.0586-0.45-7.2071-0.66-9.2579h-76.7"/><path d="m3744.9 6.5508c-5.18-2.6992-16.68-6.5508-31.35-6.5508-32.93 0-54.36 22.559-54.36 55.961 0 33.598 23.01 57.969 58.66 57.969 11.72 0 22.09-2.93 27.52-5.641l-4.54-15.34c-4.72 2.6992-12.16 5.1797-22.98 5.1797-25.04 0-38.58-18.5-38.58-41.27 0-25.27 16.23-40.84 37.89-40.84 11.27 0 18.71 2.9297 24.36 5.4102l3.38-14.879"/><path d="m3836.7 137.84v-26.18h28.42v-15.109h-28.42v-58.871c0-13.539 3.83-21.211 14.89-21.211 5.41 0 8.57 0.4492 11.5 1.371l0.9-14.91c-3.83-1.5586-9.92-2.9297-17.6-2.9297-9.24 0-16.7 3.168-21.42 8.5781-5.65 5.8633-7.66 15.562-7.66 28.422v59.551h-16.93v15.109h16.93v20.078l19.39 6.102"/><path d="m3994.2 67.68c0.21 12.641-5.2 32.25-27.54 32.25-20.08 0-28.87-18.48-30.45-32.25zm-58.21-14.219c0.45-26.832 17.6-37.891 37.44-37.891 14.22 0 22.78 2.4805 30.22 5.6485l3.4-14.219c-7-3.1484-18.95-7-36.33-7-33.6 0-53.69 22.352-53.69 55.281 0 32.93 19.41 58.86 51.21 58.86 35.64 0 45.12-31.34 45.12-51.422 0-4.0586-0.45-7.2071-0.69-9.2579h-76.68"/><path d="m4153.9 67.23c0 2.4804-0.23 5.8593-0.92 8.3398-2.93 12.641-13.75 23.008-28.65 23.008-20.53 0-32.69-18.047-32.69-42.188 0-22.09 10.82-40.371 32.24-40.371 13.32 0 25.49 8.8086 29.1 23.691 0.69 2.6993 0.92 5.4102 0.92 8.5782zm19.85 95.41v-131.95c0-9.7109 0.21-20.762 0.89-28.211h-17.81l-0.92 18.949h-0.45c-6.09-12.168-19.39-21.43-37.2-21.43-26.41 0-46.7 22.352-46.7 55.512-0.24 36.309 22.32 58.629 48.94 58.629 16.7 0 27.97-7.891 32.93-16.672h0.47v65.172h19.85"/><path d="m114.77 934.92h347.23c-4.695 52.308-17.969 91.538-39.824 117.68-33.574 40.62-77.109 60.91-130.57 60.91-48.418 0-89.114-16.2-122.09-48.6-32.981-32.41-51.231-75.734-54.746-129.99zm346.04-170.38 108.93-13.488c-17.188-63.645-49.004-113.01-95.45-148.12-46.464-35.157-105.78-52.676-178.01-52.676-90.957 0-163.05 27.969-216.35 84.004-53.281 55.996-79.922 134.56-79.922 235.66 0 104.62 26.934 185.8 80.801 243.58s123.74 86.66 209.62 86.66c83.152 0 151.06-28.31 203.76-84.89 52.715-56.62 79.043-136.25 79.043-238.9 0-6.262-0.196-15.625-0.567-28.117h-463.74c3.899-68.321 23.215-120.62 57.961-156.91 34.727-36.329 78.074-54.454 129.98-54.454 38.633 0 71.641 10.157 98.965 30.45 27.325 20.293 48.985 52.675 64.981 97.199"/><path d="m845.94 564.3v621.82h94.856v-88.41c45.664 68.3 111.62 102.46 197.91 102.46 37.46 0 71.91-6.73 103.34-20.21 31.43-13.47 54.92-31.11 70.55-52.99 15.62-21.87 26.55-47.82 32.8-77.86 3.9-19.52 5.85-53.672 5.85-102.46v-382.34h-105.39v378.23c0 42.946-4.1 75.043-12.31 96.323-8.19 21.28-22.73 38.27-43.61 50.95s-45.39 19.01-73.48 19.01c-44.88 0-83.63-14.23-116.23-42.72-32.593-28.52-48.882-82.57-48.882-162.2v-339.59h-105.4"/><path d="m1886.9 658.56 15.21-93.086c-29.65-6.25-56.21-9.375-79.62-9.375-38.27 0-67.92 6.054-89.01 18.125-21.08 12.109-35.92 28.007-44.48 47.754-8.61 19.668-12.89 61.171-12.89 124.41v357.75h-77.3v81.98h77.3v153.97l104.8 63.25v-217.22h105.99v-81.98h-105.99v-363.6c0-30.066 1.86-49.402 5.57-57.976 3.7-8.594 9.75-15.442 18.15-20.516 8.39-5.07 20.39-7.609 36.02-7.609 11.69 0 27.1 1.367 46.25 4.121"/><path d="m2091.7 749.89 104.22 16.398c5.84-41.758 22.13-73.762 48.88-96.027 26.74-22.246 64.12-33.36 112.14-33.36 48.4 0 84.32 9.856 107.73 29.563 23.42 19.715 35.14 42.84 35.14 69.383 0 23.808-10.35 42.539-31.04 56.211-14.45 9.375-50.35 21.269-107.75 35.722-77.27 19.493-130.85 36.407-160.73 50.637-29.85 14.258-52.5 33.973-67.9 59.145-15.44 25.179-23.13 52.98-23.13 83.421 0 27.73 6.34 53.38 19.02 77.01 12.68 23.62 29.95 43.22 51.83 58.84 16.39 12.09 38.72 22.35 67.02 30.74 28.31 8.41 58.67 12.6 91.06 12.6 48.79 0 91.66-7.02 128.53-21.09 36.9-14.06 64.11-33.06 81.68-57.07 17.58-24.02 29.67-56.14 36.29-96.33l-103.02-14.04c-4.71 32-18.27 56.98-40.71 74.93-22.46 17.95-54.16 26.94-95.15 26.94-48.42 0-82.96-8.01-103.64-24-20.69-16.03-31.04-34.75-31.04-56.21 0-13.68 4.3-25.96 12.88-36.913 8.59-11.324 22.05-20.688 40.4-28.082 10.55-3.907 41.59-12.879 93.11-26.95 74.54-19.898 126.57-36.214 156.04-48.871 29.47-12.714 52.6-31.132 69.39-55.363 16.76-24.187 25.18-54.234 25.18-90.152 0-35.137-10.25-68.223-30.74-99.25-20.49-31.035-50.08-55.039-88.71-72.031-38.64-16.993-82.37-25.43-131.16-25.43-80.81 0-142.38 16.758-184.73 50.332-42.36 33.555-69.39 83.34-81.09 149.3"/><path d="m2946.4 875.2c0-79.629 17.36-139.26 52.09-178.89 34.75-39.618 78.46-59.415 131.17-59.415 52.29 0 95.82 19.903 130.57 59.707 34.73 39.825 52.11 100.53 52.11 182.1 0 76.906-17.48 135.15-52.42 174.78-34.93 39.62-78.36 59.44-130.26 59.44-52.71 0-96.42-19.71-131.17-59.14-34.73-39.42-52.09-98.946-52.09-178.59zm-108.34 0c0 115.16 32.01 200.45 96.04 255.89 53.45 46.03 118.65 69.08 195.56 69.08 85.47 0 155.35-28.01 209.61-84.03 54.26-56.01 81.41-133.4 81.41-232.15 0-80.019-12.03-142.97-36.02-188.85-24.02-45.852-58.96-81.465-104.82-106.84s-95.94-38.047-150.18-38.047c-87.07 0-157.42 27.871-211.09 83.711-53.67 55.801-80.51 136.21-80.51 241.23"/></g><path d="m3808.3 934.92h347.2c-4.7 52.308-17.95 91.538-39.8 117.68-33.59 40.62-77.11 60.91-130.59 60.91-48.41 0-89.1-16.2-122.09-48.6-32.99-32.41-51.23-75.734-54.72-129.99zm346.03-170.38 108.89-13.488c-17.15-63.645-48.97-113.01-95.41-148.12-46.49-35.157-105.8-52.676-178.01-52.676-90.96 0-163.07 27.969-216.37 84.004-53.28 55.996-79.9 134.56-79.9 235.66 0 104.62 26.93 185.8 80.8 243.58s123.73 86.66 209.61 86.66c83.15 0 151.08-28.31 203.77-84.89 52.68-56.62 79.04-136.25 79.04-238.9 0-6.262-0.21-15.625-0.58-28.117h-463.73c3.88-68.321 23.22-120.62 57.97-156.91 34.72-36.329 78.06-54.454 129.96-54.454 38.67 0 71.64 10.157 98.96 30.45 27.33 20.293 48.99 52.675 65 97.199" fill="#fbbe18"/></g></g></svg>