<svg x="874.47" y="434" width="91.33" height="19.76" viewBox="0 0 1350 300" preserveAspectRatio="xMidYMid meet"><style>@media (prefers-color-scheme: dark) { #openadr-artwork { filter: brightness(0) invert(1); } }</style><g id="openadr-artwork"><path d="M0 0 C0.935 0.205 1.869 0.41 2.832 0.621 C24.03 5.738 43.144 16.132 59 31 C59.579 31.536 60.158 32.073 60.754 32.625 C69.347 40.66 76.714 49.048 83 59 C83.39 59.616 83.781 60.231 84.183 60.866 C90.697 71.335 95.308 82.252 99 94 C99.226 94.697 99.452 95.394 99.685 96.113 C102.895 106.413 103.37 116.56 103.438 127.312 C103.448 128.564 103.458 129.815 103.469 131.105 C103.311 147.731 99.081 163.806 87.211 176.039 C74.772 187.071 60.816 189.955 44.656 189.383 C32.431 188.604 22.286 182.101 13.973 173.375 C6.49 164.366 1.829 153.96 -2 143 C-2.277 142.21 -2.554 141.42 -2.839 140.606 C-7.012 128.519 -10.277 116.374 -12.783 103.831 C-14.352 96.4 -16.498 90.296 -22.125 85 C-27.847 83.01 -33.719 83.254 -39.438 85.125 C-46.225 90.091 -47.241 96.993 -48.938 104.812 C-49.454 107.067 -49.973 109.321 -50.496 111.574 C-50.75 112.673 -51.004 113.772 -51.265 114.904 C-56.924 138.746 -65.25 164.223 -87 178 C-95.338 182.68 -103.465 184.521 -113 183 C-117.077 181.117 -119.289 178.089 -121 174 C-121.717 169.882 -121.784 165.916 -120.184 162.004 C-116.607 156.969 -111.211 155.135 -105.558 153.216 C-100.236 151.366 -95.726 149.116 -92.946 144.096 C-90.488 138.541 -88.787 133.039 -87.379 127.137 C-86.913 125.261 -86.448 123.385 -85.982 121.51 C-85.271 118.601 -84.564 115.692 -83.857 112.782 C-78.676 91.539 -72.522 70.905 -52.875 58.562 C-42.462 52.409 -29.543 52.831 -17.859 54.43 C-6.761 57.33 1.838 64.534 8 74 C14.547 85.226 17.939 97.473 21.312 109.938 C32.521 150.434 32.521 150.434 41.062 156.625 C46.901 159.35 54.408 159.059 60.477 157.27 C66.449 154.529 69.46 150.477 72.25 144.625 C79.564 124.859 69.828 98.909 61.531 80.793 C50.827 60.008 33.529 44.685 12 36 C11.276 35.656 10.551 35.312 9.805 34.957 C-14.028 24.12 -43.406 25.521 -67.625 34.125 C-95.767 44.773 -115.045 65.441 -127.582 92.402 C-136.261 114.423 -137.522 140.483 -130 163 C-129.626 164.14 -129.252 165.279 -128.867 166.453 C-124.516 178.612 -118.442 189.252 -110 199 C-109.385 199.759 -108.77 200.519 -108.137 201.301 C-94.624 217.5 -70.567 231.057 -49.388 233.789 C-15.794 236.756 13.029 229.726 39 208 C40.767 206.557 42.537 205.12 44.312 203.688 C45.092 203.052 45.872 202.416 46.676 201.762 C52.853 197.079 57.287 195.969 65 197 C68.871 198.935 72.083 201.06 74 205 C74.877 209.924 74.473 213.818 71.875 218.125 C70.947 219.438 69.988 220.731 69 222 C68.771 222.298 68.771 222.298 67.613 223.809 C55.714 238.446 38.675 247.865 22 256 C21.099 256.442 20.198 256.884 19.27 257.34 C-5.503 268.257 -37.007 269.394 -63 263 C-63.647 262.844 -64.295 262.689 -64.961 262.528 C-99.294 253.909 -129.187 231.042 -147.31 200.815 C-166.376 167.827 -171.049 130.085 -161.229 93.263 C-155.354 72.696 -144.403 54.676 -130 39 C-129.211 38.129 -128.422 37.257 -127.609 36.359 C-95.609 2.664 -44.832 -10.991 0 0 Z " fill="#A2D402" fill-rule="evenodd" transform="translate(218.0,18.0)"/><path d="M0 0 C1.434 -0 2.868 -0.002 4.301 -0.004 C7.304 -0.006 10.306 0.007 13.309 0.03 C17.113 0.058 20.917 0.055 24.721 0.042 C27.685 0.035 30.648 0.043 33.612 0.056 C35.012 0.06 36.411 0.061 37.811 0.057 C50.472 0.038 63.176 1.312 74.781 6.746 C75.45 7.051 76.118 7.356 76.807 7.671 C82.311 10.274 86.931 13.348 91.406 17.496 C92.287 18.263 93.167 19.03 94.074 19.82 C112.494 36.817 116.245 58.352 117.629 82.359 C118.271 106.554 109.885 133.539 93.406 151.496 C92.731 152.263 92.055 153.03 91.359 153.82 C79.616 166.443 63.486 173.956 46.275 174.616 C42.485 174.694 38.696 174.742 34.906 174.77 C34.217 174.775 33.529 174.78 32.819 174.786 C29.179 174.812 25.539 174.832 21.898 174.846 C18.903 174.86 15.909 174.887 12.914 174.928 C9.274 174.978 5.634 175.002 1.993 175.009 C0.616 175.016 -0.762 175.031 -2.14 175.055 C-10.11 175.187 -16.517 175.131 -22.594 169.496 C-26.239 164.675 -26.717 160.377 -26.748 154.45 C-26.752 153.831 -26.752 153.831 -26.774 150.695 C-26.778 149.324 -26.782 147.954 -26.787 146.583 C-26.795 145.137 -26.803 143.692 -26.811 142.246 C-26.838 137.501 -26.853 132.756 -26.867 128.012 C-26.873 126.376 -26.878 124.741 -26.883 123.105 C-26.905 116.301 -26.924 109.496 -26.935 102.692 C-26.951 92.951 -26.984 83.21 -27.041 73.469 C-27.08 66.614 -27.1 59.758 -27.105 52.903 C-27.109 48.811 -27.12 44.72 -27.153 40.629 C-27.183 36.777 -27.189 32.927 -27.178 29.075 C-27.177 27.666 -27.186 26.257 -27.203 24.847 C-27.297 16.877 -27.166 10.592 -21.594 4.496 C-15.255 -0.9 -7.975 -0.071 0 0 Z  M 10.40625 30.49609375 C 52.26825 30.49609375 52.26825 30.49609375 63.71825 40.12109375 C 78.99725 56.89209375 80.07025 78.00409375000001 79.40625 99.49609375 C 78.66825 113.16809375 73.48125 126.65609375 63.81625 136.50409374999998 C 48.12725 149.47209375 31.51825 144.49609375 10.40625 144.49609375 C 10.40625 106.87609375 10.40625 69.25609374999999 10.40625 30.49609375 Z" fill="#0D4118" fill-rule="evenodd" transform="translate(1027.59375,34.50390625)"/><path d="M0 0 C0.716 -0.005 1.432 -0.01 2.17 -0.015 C4.539 -0.03 6.908 -0.036 9.276 -0.042 C10.091 -0.045 10.906 -0.048 11.746 -0.051 C16.069 -0.066 20.393 -0.075 24.717 -0.079 C29.141 -0.085 33.565 -0.108 37.989 -0.137 C41.424 -0.156 44.86 -0.161 48.295 -0.162 C49.923 -0.165 51.551 -0.173 53.179 -0.187 C71.895 -0.328 90.019 1.563 104.386 14.911 C114.567 25.846 115.381 37.664 114.955 51.817 C114.389 61.889 109.243 71.311 101.886 78.099 C98.404 80.943 95.049 82.664 90.823 84.161 C91.359 84.409 91.896 84.656 92.448 84.911 C98.926 88.321 104.821 92.401 107.739 99.338 C109.713 105.732 110.212 111.56 110.261 118.224 C110.485 128.183 111.634 137.732 113.452 147.523 C116.373 163.675 116.373 163.675 113.323 170.536 C108.256 175.857 104.208 178.456 96.698 178.661 C90.535 178.374 86.942 176.927 82.198 172.974 C75.784 165.378 74.801 157.86 74.533 148.166 C74.101 132.854 73.478 115.545 61.823 104.161 C56.19 101.161 51.49 100.696 45.171 100.649 C44.721 100.64 44.721 100.64 42.443 100.595 C39.591 100.541 36.738 100.507 33.886 100.474 C31.942 100.44 29.999 100.406 28.056 100.37 C23.312 100.285 18.568 100.219 13.823 100.161 C13.83 100.947 13.837 101.734 13.843 102.544 C13.904 109.973 13.949 117.403 13.979 124.832 C13.994 128.651 14.015 132.47 14.05 136.289 C14.082 139.979 14.1 143.668 14.108 147.357 C14.113 148.761 14.124 150.165 14.14 151.568 C14.313 167.096 14.313 167.096 9.14 173.122 C8.85 173.355 8.85 173.355 7.386 174.536 C7.098 174.777 7.098 174.777 5.64 175.997 C0.731 179.143 -5.573 178.718 -11.177 178.161 C-16.81 176.42 -20.479 172.244 -23.177 167.161 C-24.239 163.807 -24.307 160.698 -24.317 157.191 C-24.323 155.969 -24.329 154.746 -24.335 153.487 C-24.336 152.135 -24.337 150.783 -24.338 149.432 C-24.343 148.006 -24.348 146.58 -24.353 145.154 C-24.366 141.282 -24.373 137.409 -24.377 133.537 C-24.38 131.116 -24.384 128.695 -24.388 126.275 C-24.402 118.695 -24.412 111.115 -24.416 103.535 C-24.42 94.795 -24.438 86.056 -24.467 77.316 C-24.488 70.554 -24.498 63.792 -24.5 57.03 C-24.501 52.994 -24.507 48.959 -24.525 44.923 C-24.541 41.125 -24.543 37.326 -24.534 33.527 C-24.534 32.138 -24.538 30.748 -24.548 29.358 C-24.607 20.54 -24.233 13.903 -19.364 6.349 C-13.754 0.739 -7.567 0.04 0 0 Z  M 13.8232421875 29.1611328125 C 20.897242187499998 29.1201328125 27.9722421875 29.0781328125 35.2612421875 29.0361328125 C 36.3682421875 29.0271328125 36.3682421875 29.0271328125 41.9732421875 28.9811328125 C 43.7552421875 28.9751328125 45.5372421875 28.9701328125 47.3192421875 28.9661328125 C 48.2232421875 28.9551328125 49.1272421875 28.9451328125 50.0582421875 28.9351328125 C 58.4482421875 28.9321328125 66.1802421875 29.5991328125 72.8232421875 35.1611328125 C 78.0352421875 41.9231328125 78.4472421875 47.8201328125 77.8232421875 56.1611328125 C 76.8172421875 61.2241328125 74.9472421875 65.0061328125 70.6652421875 68.1421328125 C 63.5532421875 72.0771328125 55.9562421875 72.5861328125 48.0032421875 72.4541328125 C 47.0182421875 72.4501328125 46.0332421875 72.44513281249999 45.0192421875 72.4411328125 C 41.9122421875 72.4241328125 38.8052421875 72.3871328125 35.6982421875 72.3491328125 C 33.5762421875 72.3331328125 31.4532421875 72.32013281249999 29.3312421875 72.3071328125 C 24.1612421875 72.2771328125 18.9932421875 72.2181328125 13.8232421875 72.1611328125 C 13.8232421875 57.9711328125 13.8232421875 43.7811328125 13.8232421875 29.1611328125 Z" fill="#0E4319" fill-rule="evenodd" transform="translate(1179.1767578125,33.8388671875)"/><path d="M0 0 C1.063 -0.015 2.126 -0.031 3.221 -0.047 C9.283 -0.017 13.276 0.243 17.938 4.5 C21.679 8.589 23.761 11.842 25.539 17.172 C25.654 17.511 25.654 17.511 26.236 19.227 C27.025 21.564 27.794 23.907 28.562 26.25 C29.139 27.973 29.716 29.696 30.293 31.418 C32.08 36.761 33.845 42.111 35.607 47.462 C37.1 51.996 38.6 56.528 40.1 61.061 C53.597 101.861 53.597 101.861 59.384 119.589 C59.516 119.994 59.516 119.994 60.185 122.044 C60.704 123.634 61.223 125.224 61.742 126.814 C63.31 131.611 64.912 136.394 66.536 141.172 C66.917 142.311 67.298 143.451 67.691 144.625 C68.368 146.648 69.057 148.668 69.762 150.682 C72.188 158.014 73.766 165.775 70.25 172.938 C66.279 177.338 63.076 180.244 57.012 180.738 C47.934 180.937 47.934 180.937 43.375 178.938 C36.707 172.269 35.308 164.054 33.25 155.125 C32.943 153.849 32.635 152.573 32.318 151.258 C30.743 144.584 29.702 138.376 28.938 131.5 C9.138 131.5 -10.663 131.5 -31.062 131.5 C-31.722 135.46 -32.383 139.42 -33.062 143.5 C-34.075 148.32 -35.254 153.094 -36.438 157.875 C-36.729 159.106 -37.02 160.337 -37.32 161.605 C-40.701 175.292 -40.701 175.292 -46.875 179.348 C-53.543 181.758 -61.216 181.776 -67.688 178.875 C-72.178 174.385 -74.298 171.472 -74.391 165.026 C-74.289 158.372 -72.665 152.813 -70.434 146.59 C-70.053 145.481 -69.672 144.372 -69.28 143.23 C-68.037 139.626 -66.769 136.032 -65.5 132.438 C-64.624 129.913 -63.75 127.389 -62.878 124.864 C-60.696 118.56 -58.492 112.264 -56.281 105.971 C-54.519 100.953 -52.771 95.93 -51.023 90.906 C-49.216 85.712 -47.405 80.519 -45.58 75.331 C-42.233 65.804 -38.959 56.256 -35.754 46.68 C-35.026 44.513 -34.299 42.346 -33.571 40.18 C-32.178 36.032 -30.799 31.879 -29.427 27.724 C-28.793 25.833 -28.158 23.942 -27.523 22.051 C-27.247 21.201 -26.97 20.351 -26.686 19.475 C-24.386 12.687 -21.664 6.6 -16.004 2.031 C-10.973 -0.441 -5.481 -0.08 0 0 Z  M -1.0625 41.5 C 0.9914999999999998 44.581 1.8915000000000002 47.106 3.0035 50.625 C 3.4035 51.877 3.8025 53.129 4.2135 54.419 C 4.6425 55.778999999999996 5.0715 57.14 5.4995 58.5 C 6.3925 61.308 7.2875 64.115 8.1835 66.922 C 8.4105 67.634 8.6375 68.34700000000001 8.8715 69.081 C 10.4075 73.88499999999999 11.9855 78.674 13.5975 83.453 C 14.0125 84.684 14.4275 85.91499999999999 14.8555 87.184 C 15.648499999999999 89.52600000000001 16.4445 91.86699999999999 17.2445 94.207 C 17.5995 95.25800000000001 17.9545 96.30799999999999 18.3205 97.39099999999999 C 18.6335 98.309 18.9475 99.227 19.2705 100.173 C 19.9375 102.5 19.9375 102.5 19.9375 105.5 C 6.0775 105.5 -7.7825 105.5 -22.0625 105.5 C -19.8125 95.37299999999999 -19.8125 95.37299999999999 -18.1985 90.537 C -17.8415 89.46000000000001 -17.4845 88.38300000000001 -17.1175 87.273 C -16.7365 86.14099999999999 -16.3565 85.00999999999999 -15.9645 83.844 C -15.5705 82.66 -15.1765 81.477 -14.7695 80.257 C -13.7295 77.14 -12.6855 74.024 -11.6395 70.908 C -10.7835 68.35300000000001 -9.9325 65.795 -9.0815 63.238 C -8.0665 60.189 -7.0465 57.141 -6.0275 54.094 C -5.6455 52.946 -5.2625 51.798 -4.8685 50.616 C -4.515499999999999 49.564 -4.1615 48.512 -3.7965 47.428 C -3.4855 46.498 -3.1735 45.568 -2.8525 44.61 C -2.0625 42.5 -2.0625 42.5 -1.0625 41.5 Z" fill="#0D4218" fill-rule="evenodd" transform="translate(920.0625,31.5)"/><path d="M0 0 C2.506 2.205 4.885 4.481 7.23 6.855 C7.794 7.397 8.357 7.938 8.938 8.496 C20.283 20.35 22.826 35.701 22.543 51.383 C21.938 66.13 14.94 79.794 4.23 89.855 C-9.631 101.126 -24.852 106.448 -42.77 104.855 C-55.215 102.743 -65.023 97.728 -74.77 89.855 C-74.771 90.824 -74.772 91.792 -74.774 92.79 C-74.791 101.913 -74.833 111.035 -74.902 120.158 C-74.936 124.848 -74.961 129.538 -74.965 134.229 C-74.969 138.755 -74.998 143.28 -75.043 147.806 C-75.056 149.533 -75.06 151.26 -75.056 152.987 C-75.051 155.406 -75.077 157.823 -75.11 160.241 C-75.101 160.956 -75.093 161.671 -75.084 162.408 C-75.169 166.091 -75.516 167.589 -78.092 170.296 C-81.651 172.369 -83.713 172.507 -87.77 171.855 C-90.448 170.106 -90.448 170.106 -92.77 166.855 C-93.528 162.672 -93.452 158.527 -93.417 154.285 C-93.421 153.647 -93.421 153.647 -93.443 150.415 C-93.466 146.917 -93.457 143.419 -93.441 139.92 C-93.428 136.247 -93.44 132.573 -93.448 128.9 C-93.457 122.723 -93.445 116.546 -93.421 110.369 C-93.394 103.256 -93.403 96.144 -93.431 89.032 C-93.453 82.907 -93.456 76.782 -93.443 70.657 C-93.436 67.007 -93.434 63.358 -93.451 59.708 C-93.468 55.625 -93.444 51.544 -93.417 47.461 C-93.427 46.272 -93.437 45.083 -93.447 43.858 C-93.258 28.692 -86.413 15.644 -76.207 4.668 C-55.704 -14.871 -22.755 -17.62 0 0 Z  M -9.796875 14.16796875 C -2.203875 20.48796875 3.775124999999999 28.91496875 5.230124999999999 38.85596875 C 6.249124999999999 52.01296875 4.841125 62.88096875 -4.019875 73.29296875 C -13.125875 82.57996875 -22.109875000000002 87.08996875 -35.144875 87.29296875 C -46.657875 87.20196875 -56.101875 83.59096875 -64.769875 75.85596875 C -67.517875 72.72296875 -69.704875 69.47096875 -71.769875 65.85596875 C -72.203875 65.10796875 -72.63787500000001 64.35996875000001 -73.085875 63.58996875 C -77.443875 54.66196875 -77.109875 42.92396875 -74.706875 33.41796875 C -70.706875 22.42596875 -62.549875 13.91196875 -52.081875 8.979968750000001 C -37.904875000000004 2.7839687499999997 -22.224875 5.17796875 -9.796875 14.16796875 Z" fill="#0E4219" fill-rule="evenodd" transform="translate(570.76953125,105.14453125)"/><path d="M0 0 C8.875 6.357 15.07 14.247 20 24 C20.454 24.886 20.908 25.771 21.375 26.684 C26.91 39.924 25.743 57.619 20.547 70.77 C13.031 86.466 1.806 96.957 -14.516 103.176 C-15.335 103.448 -16.155 103.72 -17 104 C-18.065 104.357 -19.13 104.714 -20.227 105.082 C-35.461 108.788 -50.985 105.535 -64.375 97.75 C-78.943 88.038 -87.882 74.295 -91.312 57.188 C-93.727 41.007 -89.631 25.38 -79.93 12.184 C-59.247 -12.095 -26.858 -17.278 0 0 Z  M -6.0 17.0625 C 1.8890000000000002 23.9575 6.346 34.061499999999995 7.311999999999999 44.316500000000005 C 7.75 56.7845 4.481 67.6725 -4.0 77.0005 C -10.043 82.3665 -16.122 86.1315 -24.0 88.0005 C -24.804 88.2265 -25.609 88.4535 -26.438 88.6875 C -38.692 90.1815 -49.859 87.5355 -59.781 79.9805 C -67.188 73.3685 -72.475 64.8885 -74.0 55.0005 C -74.698 41.4105 -72.807 31.2685 -64.375 20.3745 C -48.012 2.333500000000001 -24.709 4.1995000000000005 -6.0 17.0625 Z" fill="#0F441A" fill-rule="evenodd" transform="translate(445.0,104.0)"/><path d="M0 0 C12.575 9.663 21.732 23.121 24 39 C24 44.28 24 49.56 24 55 C-8.34 55 -40.68 55 -74 55 C-67.925 70.796 -62.595 78.867 -47.754 86.094 C-38.302 89.84 -28.118 88.775 -18.785 85.258 C-9.594 81.107 -3.335 75.049 2.188 66.688 C4.003 63.995 5.082 62.417 8 61 C11.914 61.07 14.204 61.414 17.375 63.75 C19.244 66.338 19.705 67.833 20 71 C15.808 82.867 5.823 92.948 -5 99 C-20.924 106.293 -37.064 108.762 -54 103 C-68.94 96.575 -81.027 85.528 -87.934 70.711 C-93.816 55.758 -93.9 39.899 -88 25 C-80.845 9.096 -68.079 -1.488 -52.266 -8.152 C-35.478 -13.672 -14.351 -9.975 0 0 Z  M -6.9140625 16.45703125 C -0.053062500000000234 21.85903125 4.8839375 29.53503125 6.9999375 38.00003125 C -19.4000625 38.00003125 -45.8000625 38.00003125 -73.0000625 38.00003125 C -71.4670625 28.80103125 -66.6030625 20.60703125 -59.0000625 15.00003125 C -41.0890625 4.786031250000001 -24.3740625 4.26103125 -6.9140625 16.45703125 Z" fill="#0E4319" fill-rule="evenodd" transform="translate(690.0,104.0)"/><path d="M0 0 C11.564 9.499 19.39 23.447 21.504 38.227 C21.605 40.231 21.662 42.238 21.681 44.244 C21.687 44.827 21.687 44.827 21.72 47.774 C21.727 49.017 21.735 50.261 21.742 51.543 C21.75 52.832 21.758 54.121 21.767 55.45 C21.782 58.17 21.791 60.891 21.799 63.612 C21.81 67.091 21.845 70.57 21.884 74.049 C21.917 77.38 21.921 80.711 21.93 84.043 C21.947 85.289 21.965 86.535 21.983 87.818 C21.98 88.98 21.977 90.141 21.974 91.338 C21.98 92.357 21.986 93.376 21.992 94.426 C21.373 97.979 19.981 99.655 17.504 102.227 C15.32 103.109 15.32 103.109 13.066 103.352 C12.325 103.457 11.584 103.563 10.82 103.672 C8.084 103.146 6.495 102.137 4.576 100.123 C2.089 95.723 2.849 90.159 2.902 85.254 C2.894 83.98 2.886 82.706 2.878 81.393 C2.859 78.006 2.859 74.62 2.872 71.233 C2.888 66.492 2.883 61.751 2.858 57.01 C2.846 54.491 2.849 51.972 2.868 49.453 C2.827 36.522 0.601 25.919 -8.312 16.258 C-13.111 11.682 -18.209 9.215 -24.496 7.227 C-25.107 7.033 -25.718 6.84 -26.348 6.641 C-39.382 4.129 -51.529 7.106 -62.496 14.227 C-63.125 14.634 -63.754 15.041 -64.402 15.461 C-70.924 20.323 -74.837 27.853 -76.038 35.82 C-76.231 39.786 -76.249 43.728 -76.195 47.695 C-76.199 49.148 -76.206 50.601 -76.215 52.054 C-76.234 55.841 -76.22 59.626 -76.197 63.412 C-76.162 69.498 -76.168 75.584 -76.193 81.67 C-76.195 83.787 -76.178 85.902 -76.158 88.018 C-76.158 88.66 -76.158 88.66 -76.159 91.904 C-76.152 93.032 -76.145 94.159 -76.138 95.321 C-76.539 98.576 -77.195 99.924 -79.496 102.227 C-83.134 103.439 -85.673 103.622 -89.496 103.227 C-92.108 101.572 -93.075 100.87 -94.496 98.227 C-95.236 93.855 -95.148 89.529 -95.09 85.105 C-95.09 83.814 -95.09 82.522 -95.09 81.192 C-95.088 78.455 -95.07 75.72 -95.038 72.984 C-94.999 69.518 -94.994 66.053 -95.002 62.586 C-95.005 59.238 -94.984 55.891 -94.965 52.543 C-94.965 51.931 -94.965 51.931 -94.964 48.832 C-94.712 30.08 -89.76 16.513 -76.496 3.227 C-75.858 2.577 -75.22 1.927 -74.562 1.258 C-53.382 -18.822 -22.511 -15.994 0 0 Z " fill="#0F441A" fill-rule="evenodd" transform="translate(814.49609375,105.7734375)"/><path d="M0 0 C2.31 0 4.62 0 7 0 C12.441 9.612 17.797 19.257 23 29 C23.33 19.43 23.66 9.86 24 0 C25.65 0 27.3 0 29 0 C29 14.19 29 28.38 29 43 C27.02 43 25.04 43 23 43 C22.657 42.34 22.315 41.68 21.962 41 C20.393 37.978 18.821 34.958 17.25 31.938 C16.711 30.899 16.172 29.861 15.617 28.791 C15.089 27.776 14.56 26.761 14.016 25.715 C13.534 24.788 13.052 23.861 12.556 22.906 C10.769 19.568 8.878 16.287 7 13 C6.67 22.9 6.34 32.8 6 43 C4.02 43 2.04 43 0 43 C0 28.81 0 14.62 0 0 Z " fill="#20562B" fill-rule="evenodd" transform="translate(1159.0,228.0)"/><path d="M0 0 C2.31 0 4.62 0 7 0 C8.233 3.89 9.46 7.782 10.68 11.676 C11.095 12.994 11.511 14.312 11.928 15.629 C14.69 24.34 17.094 33.059 19 42 C17.02 42 15.04 42 13 42 C12.494 40.564 11.996 39.126 11.5 37.688 C11.222 36.887 10.943 36.086 10.656 35.262 C10 33 10 33 10 30 C5.38 30 0.76 30 -4 30 C-4.144 31.238 -4.289 32.475 -4.438 33.75 C-4.787 36.565 -5.204 39.27 -6 42 C-7.98 42 -9.96 42 -12 42 C-9.702 32.294 -7.104 22.7 -4.312 13.125 C-4.003 12.061 -3.694 10.997 -3.375 9.9 C-1.131 2.261 -1.131 2.261 0 0 Z  M 2.0 9.0 C 2.66 9.0 3.3200000000000003 9.0 4.0 9.0 C 4.672000000000001 11.103 5.337 13.207 6.0 15.312000000000001 C 6.371 16.484 6.743 17.656 7.125 18.863 C 8.0 22.0 8.0 22.0 8.0 25.0 C 4.7 25.0 1.4 25.0 -2.0 25.0 C -0.8370000000000002 19.599 0.42300000000000004 14.294 2.0 9.0 Z" fill="#1A5026" fill-rule="evenodd" transform="translate(1115.0,229.0)"/><path d="M0 0 C2.31 0 4.62 0 7 0 C8.712 5.659 10.421 11.319 12.127 16.98 C12.708 18.907 13.29 20.833 13.873 22.759 C14.71 25.524 15.543 28.289 16.375 31.055 C16.506 31.487 16.506 31.487 17.17 33.675 C17.411 34.475 17.651 35.276 17.898 36.101 C18.112 36.807 18.325 37.513 18.544 38.241 C19 40 19 40 19 42 C16.69 42 14.38 42 12 42 C11.01 38.37 10.02 34.74 9 31 C4.71 30.67 0.42 30.34 -4 30 C-4.33 31.98 -4.66 33.96 -5 36 C-5.633 38.011 -6.291 40.015 -7 42 C-8.65 42 -10.3 42 -12 42 C-10.424 34.276 -8.272 26.745 -6.059 19.186 C-5.432 17.044 -4.81 14.9 -4.189 12.756 C-1.139 2.278 -1.139 2.278 0 0 Z  M 2.0 10.0 C 5.239 12.586 5.793 15.225999999999999 6.688 19.188000000000002 C 6.813 19.731 6.813 19.731 7.449 22.48 C 7.631 23.311999999999998 7.813 24.143 8.0 25.0 C 4.7 25.0 1.4 25.0 -2.0 25.0 C -1.524 22.874000000000002 -1.044 20.749000000000002 -0.5619999999999998 18.625 C -0.2959999999999998 17.442 -0.028999999999999915 16.258 0.246 15.039 C 1.0 12.0 1.0 12.0 2.0 10.0 Z" fill="#194E24" fill-rule="evenodd" transform="translate(929.0,229.0)"/><path d="M0 0 C8.25 0 16.5 0 25 0 C25 1.98 25 3.96 25 6 C18.73 6 12.46 6 6 6 C6 9.96 6 13.92 6 18 C10.95 18 15.9 18 21 18 C21 19.65 21 21.3 21 23 C16.05 23 11.1 23 6 23 C6 27.62 6 32.24 6 37 C12.27 37 18.54 37 25 37 C25 38.98 25 40.96 25 43 C16.75 43 8.5 43 0 43 C0 28.81 0 14.62 0 0 Z " fill="#184F24" fill-rule="evenodd" transform="translate(1272.0,228.0)"/><path d="M0 0 C4.594 1.798 6.681 4.705 9 9 C9.25 11.875 9.25 11.875 9 14 C7.35 14.33 5.7 14.66 4 15 C3.792 14.434 3.585 13.868 3.371 13.285 C2.409 10.995 1.447 9.022 0 7 C-3.438 5.688 -3.438 5.688 -7 6 C-10.201 8.505 -11.713 10.138 -13 14 C-13.54 21.59 -13.488 28.153 -10 35 C-6.737 37.175 -5.766 37.282 -2 37 C-1.505 36.835 -1.505 36.835 1 36 C1.743 33.69 2.411 31.354 3 29 C4 28 4 28 6.562 27.938 C6.965 27.948 6.965 27.948 9 28 C8.566 33.424 7.451 36.761 4 41 C-0.428 43.742 -4.948 43.878 -10 43 C-14.816 40.485 -17.38 37.021 -19.405 31.996 C-20.484 28.379 -20.53 24.815 -20.5 21.062 C-20.496 20.266 -20.491 19.47 -20.487 18.65 C-20.312 12.631 -19.36 8.384 -15 4 C-14.278 3.175 -13.556 2.35 -12.812 1.5 C-8.579 -0.758 -4.696 -0.628 0 0 Z " fill="#14491F" fill-rule="evenodd" transform="translate(1236.0,228.0)"/><path d="M0 0 C1.98 0 3.96 0 6 0 C6 12.21 6 24.42 6 37 C11.61 37 17.22 37 23 37 C23 38.98 23 40.96 23 43 C15.41 43 7.82 43 0 43 C0 28.81 0 14.62 0 0 Z " fill="#1B5227" fill-rule="evenodd" transform="translate(973.0,228.0)"/><path d="M0 0 C1.65 0 3.3 0 5 0 C5 11.88 5 23.76 5 36 C10.94 36 16.88 36 23 36 C23 37.98 23 39.96 23 42 C15.41 42 7.82 42 0 42 C0 28.14 0 14.28 0 0 Z " fill="#11471D" fill-rule="evenodd" transform="translate(1023.0,229.0)"/><path d="M0 0 C1.65 0 3.3 0 5 0 C5 13.53 5 27.06 5 41 C3.35 41 1.7 41 0 41 C0 27.47 0 13.94 0 0 Z " fill="#0C3F17" fill-rule="evenodd" transform="translate(1072.0,229.0)"/></g></svg>