<svg xmlns="http://www.w3.org/2000/svg" data-standalone-wrapper="1" viewBox="850 505 69.69 31" width="69.69" height="31"><g id="ow-light"><svg x="850" y="505" width="69.69" height="31" viewBox="0 0 84 32" preserveAspectRatio="xMidYMid meet">
<g clip-path="url(#clip0_2724_300)">
<path d="M3.73458 29.7139C2.65967 29.7139 1.80462 29.4196 1.16944 28.8311C0.534265 28.2343 0.216675 27.3842 0.216675 26.2807V24.2208C0.216675 23.1173 0.534265 22.2712 1.16944 21.6827C1.80462 21.0859 2.65967 20.7876 3.73458 20.7876C4.80949 20.7876 5.66454 21.0859 6.29971 21.6827C6.93491 22.2712 7.25249 23.1173 7.25249 24.2208V26.2807C7.25249 27.3842 6.93491 28.2343 6.29971 28.8311C5.66454 29.4196 4.80949 29.7139 3.73458 29.7139ZM3.73458 28.267C4.33719 28.267 4.80542 28.0913 5.13928 27.7398C5.47318 27.3883 5.64013 26.9183 5.64013 26.3297V24.1717C5.64013 23.5832 5.47318 23.1132 5.13928 22.7617C4.80542 22.4102 4.33719 22.2344 3.73458 22.2344C3.14012 22.2344 2.67188 22.4102 2.32986 22.7617C1.99599 23.1132 1.82905 23.5832 1.82905 24.1717V26.3297C1.82905 26.9183 1.99599 27.3883 2.32986 27.7398C2.67188 28.0913 3.14012 28.267 3.73458 28.267Z" fill="#464648"/>
<path d="M8.47168 31.9941V23.4602H9.9863V24.1959H10.2062C10.3446 23.9589 10.5604 23.7504 10.8536 23.5706C11.1467 23.3826 11.5661 23.2886 12.1117 23.2886C12.6003 23.2886 13.0523 23.4112 13.4676 23.6564C13.8829 23.8935 14.2168 24.245 14.4692 24.7109C14.7216 25.1768 14.8479 25.7408 14.8479 26.403V26.5991C14.8479 27.2613 14.7216 27.8253 14.4692 28.2912C14.2168 28.7571 13.8829 29.1127 13.4676 29.358C13.0523 29.595 12.6003 29.7135 12.1117 29.7135C11.7453 29.7135 11.4358 29.6686 11.1834 29.5787C10.9391 29.4969 10.7396 29.3907 10.5848 29.2599C10.4383 29.1209 10.3202 28.9819 10.2306 28.843H10.0108V31.9941H8.47168ZM11.6475 28.3648C12.128 28.3648 12.523 28.2136 12.8324 27.9111C13.15 27.6005 13.3088 27.1509 13.3088 26.5624V26.4397C13.3088 25.8512 13.15 25.4057 12.8324 25.1033C12.5148 24.7926 12.1199 24.6373 11.6475 24.6373C11.1753 24.6373 10.7803 24.7926 10.4627 25.1033C10.1451 25.4057 9.9863 25.8512 9.9863 26.4397V26.5624C9.9863 27.1509 10.1451 27.6005 10.4627 27.9111C10.7803 28.2136 11.1753 28.3648 11.6475 28.3648Z" fill="#464648"/>
<path d="M18.7771 29.7135C18.1745 29.7135 17.6411 29.5868 17.1769 29.3334C16.7209 29.0719 16.3626 28.7081 16.102 28.2422C15.8496 27.768 15.7234 27.2122 15.7234 26.5746V26.4275C15.7234 25.7899 15.8496 25.2381 16.102 24.7722C16.3545 24.2981 16.7087 23.9344 17.1647 23.6809C17.6208 23.4194 18.1501 23.2886 18.7527 23.2886C19.3472 23.2886 19.8642 23.4234 20.304 23.6932C20.7437 23.9548 21.0857 24.3226 21.33 24.7967C21.5743 25.2627 21.6965 25.8062 21.6965 26.4275V26.9547H17.2869C17.3032 27.3716 17.4579 27.7109 17.7511 27.9724C18.0442 28.234 18.4025 28.3648 18.826 28.3648C19.2576 28.3648 19.5751 28.2708 19.7787 28.0828C19.9823 27.8948 20.1371 27.6863 20.2429 27.4574L21.5011 28.1196C21.387 28.3321 21.2201 28.565 21.0002 28.8185C20.7885 29.0637 20.5035 29.2762 20.1452 29.456C19.7869 29.6277 19.3308 29.7135 18.7771 29.7135ZM17.2991 25.8022H20.133C20.1004 25.4506 19.9579 25.1686 19.7055 24.9561C19.4612 24.7436 19.1395 24.6373 18.7405 24.6373C18.3252 24.6373 17.9954 24.7436 17.7511 24.9561C17.5068 25.1686 17.3561 25.4506 17.2991 25.8022Z" fill="#464648"/>
<path d="M22.8226 29.542V23.4604H24.3373V24.2574H24.5571C24.6549 24.0449 24.8381 23.8446 25.1068 23.6566C25.3755 23.4604 25.7827 23.3623 26.3283 23.3623C26.8006 23.3623 27.2119 23.4727 27.562 23.6934C27.9203 23.9059 28.1972 24.2043 28.3926 24.5884C28.5881 24.9645 28.6858 25.4059 28.6858 25.9127V29.542H27.1467V26.0353C27.1467 25.5775 27.0327 25.2342 26.8047 25.0053C26.5848 24.7764 26.2672 24.662 25.8519 24.662C25.3796 24.662 25.0132 24.8214 24.7526 25.1402C24.492 25.4508 24.3617 25.8881 24.3617 26.4522V29.542H22.8226Z" fill="#464648"/>
<path d="M30.7408 29.5417L29.6169 20.9587H31.2171L32.0477 28.4137H32.2676L33.3425 20.9587H36.1275L37.2025 28.4137H37.4223L38.2529 20.9587H39.8531L38.7293 29.5417H35.9443L34.8449 21.9151H34.6251L33.5257 29.5417H30.7408Z" fill="#464648"/>
<path d="M43.5247 29.7135C42.9221 29.7135 42.3887 29.5868 41.9245 29.3334C41.4685 29.0719 41.1102 28.7081 40.8496 28.2422C40.5972 27.768 40.4709 27.2122 40.4709 26.5746V26.4275C40.4709 25.7899 40.5972 25.2381 40.8496 24.7722C41.1021 24.2981 41.4563 23.9344 41.9123 23.6809C42.3683 23.4194 42.8977 23.2886 43.5003 23.2886C44.0948 23.2886 44.6119 23.4234 45.0516 23.6932C45.4913 23.9548 45.8334 24.3226 46.0775 24.7967C46.3221 25.2627 46.4441 25.8062 46.4441 26.4275V26.9547H42.0345C42.0508 27.3716 42.2055 27.7109 42.4986 27.9724C42.7918 28.234 43.1501 28.3648 43.5736 28.3648C44.0051 28.3648 44.3227 28.2708 44.5261 28.0828C44.73 27.8948 44.8844 27.6863 44.9903 27.4574L46.2486 28.1196C46.1348 28.3321 45.9677 28.565 45.7476 28.8185C45.5359 29.0637 45.2511 29.2762 44.8928 29.456C44.5344 29.6277 44.0786 29.7135 43.5247 29.7135ZM42.0467 25.8022H44.8805C44.8481 25.4506 44.7055 25.1686 44.4531 24.9561C44.2089 24.7436 43.8869 24.6373 43.488 24.6373C43.0728 24.6373 42.7429 24.7436 42.4986 24.9561C42.2543 25.1686 42.1037 25.4506 42.0467 25.8022Z" fill="#464648"/>
<path d="M56.2669 29.5417C55.8679 29.5417 55.5424 29.4191 55.2899 29.1738C55.0454 28.9204 54.9233 28.5853 54.9233 28.1684V24.7352H53.4087V23.46H54.9233V21.5718H56.4624V23.46H58.1236V24.7352H56.4624V27.8986C56.4624 28.1439 56.5766 28.2665 56.8046 28.2665H57.9771V29.5417H56.2669Z" fill="#464648"/>
<path d="M59.2715 29.5417V20.9587H60.8106V24.208H61.0307C61.0959 24.0772 61.1974 23.9464 61.3361 23.8156C61.4743 23.6848 61.6576 23.5786 61.8855 23.4968C62.1218 23.4069 62.4189 23.362 62.7772 23.362C63.2497 23.362 63.6609 23.4723 64.0109 23.693C64.3692 23.9055 64.6462 24.2039 64.8417 24.5881C65.0369 24.9641 65.1349 25.4055 65.1349 25.9123V29.5417H63.5957V26.0349C63.5957 25.5772 63.4815 25.2339 63.2536 25.005C63.034 24.7761 62.7164 24.6617 62.3007 24.6617C61.8287 24.6617 61.462 24.8211 61.2017 25.1399C60.941 25.4505 60.8106 25.8878 60.8106 26.4518V29.5417H59.2715Z" fill="#464648"/>
<path d="M69.3143 29.7135C68.7118 29.7135 68.1785 29.5868 67.7143 29.3334C67.258 29.0719 66.8997 28.7081 66.6394 28.2422C66.3869 27.768 66.2605 27.2122 66.2605 26.5746V26.4275C66.2605 25.7899 66.3869 25.2381 66.6394 24.7722C66.8918 24.2981 67.2457 23.9344 67.7021 23.6809C68.1579 23.4194 68.6873 23.2886 69.2898 23.2886C69.8843 23.2886 70.4014 23.4234 70.8411 23.6932C71.2808 23.9548 71.6229 24.3226 71.8675 24.7967C72.1116 25.2627 72.2337 25.8062 72.2337 26.4275V26.9547H67.8241C67.8403 27.3716 67.9952 27.7109 68.2883 27.9724C68.5814 28.234 68.9398 28.3648 69.3633 28.3648C69.7946 28.3648 70.1123 28.2708 70.3161 28.0828C70.5196 27.8948 70.6744 27.6863 70.7803 27.4574L72.0381 28.1196C71.9244 28.3321 71.7573 28.565 71.5376 28.8185C71.3259 29.0637 71.0406 29.2762 70.6823 29.456C70.324 29.6277 69.8681 29.7135 69.3143 29.7135ZM67.8364 25.8022H70.6701C70.6377 25.4506 70.4951 25.1686 70.2426 24.9561C69.9985 24.7436 69.6769 24.6373 69.2775 24.6373C68.8623 24.6373 68.5324 24.7436 68.2883 24.9561C68.0442 25.1686 67.8933 25.4506 67.8364 25.8022Z" fill="#464648"/>
<path d="M73.3596 29.542V23.4603H74.8742V24.147H75.0943C75.1836 23.9017 75.3301 23.7219 75.534 23.6075C75.7457 23.493 75.9899 23.4358 76.2668 23.4358H76.9996V24.8091H76.2423C75.8516 24.8091 75.5296 24.9153 75.2772 25.1279C75.0247 25.3322 74.8987 25.651 74.8987 26.0842V29.542H73.3596Z" fill="#464648"/>
<mask id="mask0_2724_300" style="mask-type:luminance" maskUnits="userSpaceOnUse" x="5" y="-3" width="26" height="25">
<path d="M30.8457 -2.18921H5.25031V21.8956H30.8457V-2.18921Z" fill="white"/>
</mask>
<g mask="url(#mask0_2724_300)">
<path d="M28.3889 11.6528C28.0953 11.6408 27.7993 11.6528 27.5034 11.6528C26.3003 11.6528 26.3003 11.6528 26.3267 10.4293C26.3781 9.01436 26.1235 7.60495 25.5803 6.29763C25.0371 4.99026 24.2181 3.8158 23.1793 2.85463V2.84259L22.9628 2.64991C21.8808 1.70001 20.604 0.999042 19.2222 0.596387C17.8403 0.193732 16.3871 0.0991754 14.9648 0.319377C13.5425 0.539578 12.1858 1.06918 10.99 1.8709C9.7943 2.6726 8.7887 3.72694 8.04403 4.95965L8.02719 4.98614C7.97666 5.07285 7.92372 5.15955 7.8756 5.24626C6.9173 6.94258 6.48588 8.88627 6.63638 10.8291C6.65563 11.1519 6.877 11.6287 6.2225 11.6745C5.65703 11.713 5.23353 11.9948 5.33219 12.6379C5.43085 13.281 5.92413 13.3604 6.47516 13.3604C7.32938 13.3436 8.186 13.3604 9.04022 13.3604C9.58885 13.3604 9.98347 13.582 10.0027 14.1625C10.0196 14.6875 9.6851 14.9789 9.16775 14.9862C8.52528 14.9862 8.1066 15.2824 8.15713 15.9303C8.20766 16.5782 8.73703 16.6528 9.28325 16.6384C10.816 16.6263 12.3488 16.6239 13.884 16.6384C14.4495 16.6384 14.8682 16.8792 14.8345 17.5368C14.8032 18.1365 14.4158 18.3267 13.872 18.3243C12.9287 18.3243 11.9855 18.3243 11.0398 18.3243C10.4407 18.3243 9.85353 18.3556 9.85113 19.1432C9.84872 19.9308 10.4431 19.9573 11.0398 19.9549C14.2257 19.9549 17.4116 19.9549 20.595 19.9549C21.981 19.9549 23.367 19.9549 24.753 19.9549C25.3161 19.9549 25.7829 19.8513 25.7998 19.1793C25.819 18.4568 25.3185 18.3123 24.7314 18.3267C24.4908 18.3267 24.2501 18.3267 24.0239 18.3267H19.7769C19.2211 18.3267 18.8529 18.0859 18.8361 17.5079C18.8192 16.9298 19.2018 16.6793 19.7408 16.6408C19.9165 16.6263 20.0945 16.6408 20.2702 16.6408C20.8092 16.6408 21.3121 16.5806 21.3554 15.899C21.4035 15.1764 20.9223 15.0054 20.3255 15.003C19.7817 14.9741 19.4665 14.6562 19.4665 14.1745C19.4665 13.6278 19.825 13.3315 20.4001 13.3484C20.7538 13.3484 21.11 13.3484 21.4637 13.3484C23.7641 13.3484 26.0644 13.3484 28.3648 13.3484C28.9447 13.3484 29.361 13.1654 29.3803 12.5175C29.3995 11.8696 28.9423 11.6769 28.3889 11.6528Z" fill="#F65C20"/>
<path d="M27.9775 15.9799C28.4256 15.9799 28.7888 15.6164 28.7888 15.1679C28.7888 14.7194 28.4256 14.3559 27.9775 14.3559C27.5295 14.3559 27.1663 14.7194 27.1663 15.1679C27.1663 15.6164 27.5295 15.9799 27.9775 15.9799Z" fill="#F65C20"/>
<path d="M30.0245 15.9799C30.4726 15.9799 30.8358 15.6164 30.8358 15.1679C30.8358 14.7194 30.4726 14.3559 30.0245 14.3559C29.5765 14.3559 29.2133 14.7194 29.2133 15.1679C29.2133 15.6164 29.5765 15.9799 30.0245 15.9799Z" fill="#F65C20"/>
<path d="M30.0747 14.3563H27.8954V15.9803H30.0747V14.3563Z" fill="#F65C20"/>
<path d="M23.1991 15.9803C23.6471 15.9803 24.0103 15.6167 24.0103 15.1683C24.0103 14.7198 23.6471 14.3563 23.1991 14.3563C22.751 14.3563 22.3878 14.7198 22.3878 15.1683C22.3878 15.6167 22.751 15.9803 23.1991 15.9803Z" fill="#F65C20"/>
<path d="M25.2436 15.9799C25.6917 15.9799 26.0549 15.6164 26.0549 15.1679C26.0549 14.7194 25.6917 14.3559 25.2436 14.3559C24.7956 14.3559 24.4324 14.7194 24.4324 15.1679C24.4324 15.6164 24.7956 15.9799 25.2436 15.9799Z" fill="#F65C20"/>
<path d="M25.2953 14.3563H23.116V15.9803H25.2953V14.3563Z" fill="#F65C20"/>
</g>
<path d="M49.7126 29.6938C49.2812 29.6938 48.8945 29.6202 48.5524 29.4731C48.2102 29.3177 47.9372 29.097 47.7338 28.8109C47.5382 28.5167 47.4407 28.1611 47.4407 27.7442C47.4407 27.3273 47.5382 26.9799 47.7338 26.702C47.9372 26.4159 48.2142 26.2033 48.5646 26.0644C48.9229 25.9173 49.3298 25.8437 49.7861 25.8437H51.4473V25.5004C51.4473 25.2143 51.3576 24.9813 51.1787 24.8015C50.9993 24.6135 50.7145 24.5195 50.3234 24.5195C49.9406 24.5195 49.6557 24.6094 49.4685 24.7892C49.2812 24.9609 49.1587 25.1856 49.1019 25.4636L47.6848 24.9854C47.7828 24.6748 47.9372 24.3928 48.149 24.1394C48.3691 23.8778 48.6582 23.6694 49.0166 23.514C49.3827 23.3506 49.8268 23.2688 50.3479 23.2688C51.1459 23.2688 51.7772 23.4691 52.2414 23.8696C52.7055 24.2702 52.9374 24.8505 52.9374 25.6107V27.8791C52.9374 28.1243 52.9374 28.1488 52.9374 28.345V28.8109V29.5221H52.7419C52.4409 29.5221 51.9443 29.5098 51.7037 29.5098C51.7037 29.3014 51.7037 28.9581 51.7037 28.7128V28.7006H51.4718C51.439 28.7987 51.3659 28.9295 51.2517 29.093C51.1376 29.2483 50.9586 29.3872 50.7145 29.5098C50.4699 29.6325 50.1361 29.6938 49.7126 29.6938ZM49.9812 28.4431C50.413 28.4431 50.763 28.3246 51.0317 28.0875C51.3086 27.8423 51.4473 27.5194 51.4473 27.1189V26.9963H49.8959C49.6107 26.9963 49.3871 27.0576 49.2239 27.1802C49.0612 27.3028 48.9798 27.4745 48.9798 27.6952C48.9798 27.9159 49.0651 28.0957 49.2362 28.2347C49.4072 28.3736 49.6557 28.4431 49.9812 28.4431Z" fill="#464648"/>
</g>
<defs>
<clipPath id="clip0_2724_300">
<rect width="84" height="32" fill="white"/>
</clipPath>
</defs>
</svg></g><g id="ow-dark"><svg x="850" y="505" width="69.69" height="31" viewBox="0 0 188.97333 80.466667" preserveAspectRatio="xMidYMid meet"><defs
     id="defs6" /><g
     transform="matrix(1.3333333,0,0,-1.3333333,0,80.466667)"
     id="g10"><g
       transform="scale(0.1)"
       id="g12"><path
         id="path14"
         style="fill:#f4f4f4;fill-opacity:1;fill-rule:nonzero;stroke:none"
         d="m 30.0352,106.957 c 0,-22.9765 11.3867,-37.7734 35.5078,-37.7734 24.8047,0 35.488,15.6953 35.488,37.7734 v 36.418 c 0,22.52 -13.1951,37.773 -35.488,37.773 -22.9883,0 -35.5078,-16.164 -35.5078,-37.773 z M 65.543,207.996 c 40.73,0 65.535,-25.258 65.535,-65.988 v -33.684 c 0,-41.8748 -24.805,-65.9959 -65.535,-65.9959 -40.7422,0 -65.53909375,24.1211 -65.53909375,65.9959 v 33.684 c 0,40.73 24.79689375,65.988 65.53909375,65.988" /><path
         id="path16"
         style="fill:#f4f4f4;fill-opacity:1;fill-rule:nonzero;stroke:none"
         d="m 241.242,101.949 c 0,21.844 -13.648,34.141 -30.945,34.141 -17.754,0 -30.957,-12.746 -30.957,-34.141 0,-21.3865 13.203,-34.1326 30.957,-34.1326 17.297,0 30.945,12.2852 30.945,34.1326 z m -90.574,56.434 h 28.223 v -15.926 h 3.183 c 5.918,9.559 15.938,19.121 35.957,19.121 28.223,0 51.887,-25.039 51.887,-59.629 0,-34.5896 -23.664,-59.6209 -51.887,-59.6209 -20.019,0 -30.039,9.5625 -35.957,19.1133 H 179.34 V -0.00390625 H 150.668 V 158.383" /><path
         id="path18"
         style="fill:#f4f4f4;fill-opacity:1;fill-rule:nonzero;stroke:none"
         d="m 364.156,113.102 c -1.582,14.793 -11.144,23.894 -25.929,23.894 -16.161,0 -25.039,-9.551 -26.856,-23.894 z m -25.707,48.476 c 32.766,0 54.836,-22.988 54.836,-56.894 V 93.9883 h -82.137 c 1.133,-15.4766 11.825,-27.0781 28.211,-27.0781 15.926,0 24.344,8.875 28.223,16.8359 l 23.43,-13.6523 c -7.735,-11.836 -20.93,-27.7657 -51.203,-27.7657 -33.68,0 -58.028,25.4883 -58.028,60.5269 0,34.141 23.438,58.723 56.668,58.723" /><path
         id="path20"
         style="fill:#f4f4f4;fill-opacity:1;fill-rule:nonzero;stroke:none"
         d="M 439.281,158.383 V 140.18 h 3.172 c 4.563,10.468 15.024,20.031 35.735,20.031 25.031,0 43.925,-17.981 43.925,-47.336 V 45.5117 h -28.679 v 64.6293 c 0,15.703 -9.106,25.039 -25.481,25.039 -18.437,0 -28.223,-11.387 -28.223,-31.407 V 45.5117 H 411.059 V 158.383 h 28.222" /><path
         id="path22"
         style="fill:#f4f4f4;fill-opacity:1;fill-rule:nonzero;stroke:none"
         d="M 565.836,204.809 584.953,74.6445 h 2.727 l 24.355,130.1645 h 46.887 L 683.266,74.6445 h 2.726 l 19.121,130.1645 h 30.039 L 710.121,45.5117 H 661.195 L 636.84,175.684 h -2.735 L 609.75,45.5117 H 560.824 L 535.805,204.809 h 30.031" /><path
         id="path24"
         style="fill:#f4f4f4;fill-opacity:1;fill-rule:nonzero;stroke:none"
         d="m 822.34,113.102 c -1.582,14.793 -11.145,23.894 -25.938,23.894 -16.164,0 -25.039,-9.551 -26.847,-23.894 z m -25.715,48.476 c 32.766,0 54.844,-22.988 54.844,-56.894 V 93.9883 H 769.32 c 1.133,-15.4766 11.828,-27.0781 28.215,-27.0781 15.938,0 24.356,8.875 28.223,16.8359 l 23.437,-13.6523 c -7.734,-11.836 -20.937,-27.7657 -51.203,-27.7657 -33.679,0 -58.039,25.4883 -58.039,60.5269 0,34.141 23.449,58.723 56.672,58.723" /><path
         id="path26"
         style="fill:#f4f4f4;fill-opacity:1;fill-rule:nonzero;stroke:none"
         d="m 911.801,66 c 20.027,0 31.183,11.8281 31.183,27.3047 v 2.7344 L 908.383,91.9375 C 897.691,90.5703 892.465,85.7969 892.465,79.1953 892.465,71.4609 899.066,66 911.801,66 Z m 8.644,95.578 c 30.047,0 51.2,-17.531 51.2,-44.836 V 45.5117 h -28.211 v 15.9297 h -3.176 c -3.653,-7.5 -11.61,-19.1133 -35.508,-19.1133 -25.496,0 -42.332,13.6524 -42.332,35.2735 0,17.9804 15.703,30.5004 37.324,32.7654 l 43.242,4.785 v 3.641 c 0,10.469 -7.746,19.57 -23.671,19.57 -15.93,0 -25.032,-9.101 -30.95,-21.855 l -23.203,14.113 c 8.867,12.977 25.254,30.957 55.285,30.957" /><path
         id="path28"
         style="fill:#f4f4f4;fill-opacity:1;fill-rule:nonzero;stroke:none"
         d="m 1010.37,158.383 v 35.051 h 28.67 v -35.051 h 30.95 v -24.121 h -30.95 V 76.4688 c 0,-4.5508 2.28,-6.836 6.37,-6.836 h 18.21 V 45.5117 h -30.95 c -12.74,0 -22.3,9.1133 -22.3,21.8477 v 66.9026 h -28.675 v 24.121 h 28.675" /><path
         id="path30"
         style="fill:#f4f4f4;fill-opacity:1;fill-rule:nonzero;stroke:none"
         d="M 1117.8,204.809 V 140.18 h 2.72 c 4.56,10.468 15.02,20.031 35.73,20.031 25.03,0 43.93,-17.981 43.93,-47.336 V 45.5117 h -28.68 v 64.6293 c 0,15.703 -9.1,25.039 -25.48,25.039 -18.44,0 -28.22,-11.387 -28.22,-31.407 V 45.5117 h -28.67 V 204.809 h 28.67" /><path
         id="path32"
         style="fill:#f4f4f4;fill-opacity:1;fill-rule:nonzero;stroke:none"
         d="m 1299.87,113.102 c -1.58,14.793 -11.15,23.894 -25.93,23.894 -16.16,0 -25.04,-9.551 -26.86,-23.894 z m -25.71,48.476 c 32.77,0 54.84,-22.988 54.84,-56.894 V 93.9883 h -82.14 c 1.13,-15.4766 11.82,-27.0781 28.21,-27.0781 15.93,0 24.35,8.875 28.23,16.8359 l 23.42,-13.6523 c -7.73,-11.836 -20.92,-27.7657 -51.2,-27.7657 -33.68,0 -58.03,25.4883 -58.03,60.5269 0,34.141 23.44,58.723 56.67,58.723" /><path
         id="path34"
         style="fill:#f4f4f4;fill-opacity:1;fill-rule:nonzero;stroke:none"
         d="m 1375,142.008 h 3.18 c 4.32,12.508 13.88,16.836 28.22,16.836 h 10.92 v -25.031 h -16.84 c -14.56,0 -25.03,-7.743 -25.03,-23.672 V 45.5117 h -28.67 V 158.383 H 1375 v -16.375" /><path
         id="path36"
         style="fill:#ea563e;fill-opacity:1;fill-rule:nonzero;stroke:none"
         d="m 537.035,374.473 v -1.137 c 0,-8.234 -6.621,-14.957 -14.863,-14.957 h -156.25 c -8.231,0 -14.863,-6.625 -14.863,-14.859 v -1.137 c 0,-8.238 6.632,-14.863 14.863,-14.863 h 6.152 c 8.235,0 14.961,-6.719 14.961,-14.957 v -1.133 c 0,-8.239 -6.726,-14.864 -14.961,-14.864 H 353.52 c -8.235,0 -14.95,-6.718 -14.95,-14.957 v -1.136 c 0,-8.231 6.715,-14.86 14.95,-14.86 h 101.671 c 8.231,0 14.852,-6.715 14.852,-14.953 v -1.137 c 0,-8.234 -6.621,-14.859 -14.852,-14.859 H 185.699 c -8.246,0 -14.961,6.625 -14.961,14.859 v 1.137 c 0,8.238 6.715,14.953 14.961,14.953 h 64.547 c 8.246,0 14.965,6.629 14.965,14.86 v 1.136 c 0,8.239 -6.719,14.957 -14.965,14.957 h -95.973 c -8.332,0 -14.96,6.625 -14.96,14.864 v 1.133 c 0,1.992 0.378,3.98 1.132,5.679 2.176,5.492 7.578,9.278 13.828,9.278 h 5.008 c 8.242,0 14.961,6.625 14.961,14.863 v 1.137 c 0,8.234 -6.719,14.859 -14.961,14.859 h -57.832 c -8.2302,0 -14.9607,6.723 -14.9607,14.957 v 1.137 c 0,8.23 6.7305,14.859 14.9607,14.859 h 11.36 c -1.516,9.656 -2.364,19.594 -2.364,29.629 0,101.949 82.723,184.586 184.578,184.586 101.946,0 184.582,-82.637 184.582,-184.586 0,-10.035 -0.851,-19.973 -2.363,-29.629 h 44.93 c 8.242,0 14.863,-6.629 14.863,-14.859" /><path
         id="path38"
         style="fill:#ea4c35;fill-opacity:1;fill-rule:nonzero;stroke:none"
         d="m 560.348,312.563 v -1.133 c 0,-8.239 -6.719,-14.864 -14.961,-14.864 H 512.16 c -8.23,0 -14.859,6.625 -14.859,14.864 v 1.133 c 0,8.238 6.629,14.957 14.859,14.957 h 33.227 c 8.242,0 14.961,-6.719 14.961,-14.957" /><path
         id="path40"
         style="fill:#ea4c35;fill-opacity:1;fill-rule:nonzero;stroke:none"
         d="m 472.121,312.563 v -1.133 c 0,-8.239 -6.715,-14.864 -14.961,-14.864 h -33.219 c -8.234,0 -14.867,6.625 -14.867,14.864 v 1.133 c 0,8.238 6.633,14.957 14.867,14.957 h 33.219 c 8.246,0 14.961,-6.719 14.961,-14.957" /></g></g></svg></g><style>#ow-dark{display:none} @media (prefers-color-scheme: dark) { #ow-light{display:none} #ow-dark{display:inline} }</style></svg>