<svg x="938.13" y="497" width="60" height="50" viewBox="0 0 572 267" preserveAspectRatio="xMidYMid meet">
<path d="M0 0 C4.368 1.562 6.692 4.964 9.438 8.5 C9.958 9.161 10.479 9.823 11.016 10.504 C16.694 17.781 22.086 25.263 27.428 32.789 C28.897 34.855 30.375 36.915 31.855 38.973 C45.765 58.39 59.084 78.293 71 99 C71.219 99.378 71.219 99.378 72.326 101.289 C88.476 129.296 103.417 159.015 94.836 192.076 C88.193 215.389 73.42 235.296 52.176 247.191 C30.848 258.6 5.739 261.826 -17.754 255.387 C-40.914 248.212 -60.534 232.37 -72 211 C-83.895 187.107 -84.541 163.462 -76.223 138.543 C-64.089 103.92 -45.3 71.776 -26.056 40.706 C-25.017 39.027 -23.979 37.346 -22.941 35.666 C-15.504 23.634 -7.963 11.692 0 0 Z M-21 140 C-25.373 145.853 -28.304 151.377 -28.125 158.812 C-28.107 159.788 -28.089 160.764 -28.07 161.77 C-28.047 162.506 -28.024 163.242 -28 164 C-28.28 163.84 -28.28 163.84 -29.699 163.031 C-33.743 161.219 -37.671 161.262 -42 162 C-45.851 163.852 -48.214 166.265 -49.977 170.156 C-51.133 174.226 -51.106 176.627 -49.938 180.75 C-46.482 186.547 -42.544 190.144 -36 192 C-32.379 192.371 -28.799 192.291 -25.164 192.203 C-24.085 192.19 -23.007 192.176 -21.895 192.162 C-19.529 192.133 -17.162 192.097 -14.796 192.057 C-10.858 191.998 -6.921 191.973 -2.983 191.959 C3.382 191.936 9.747 191.886 16.113 191.816 C19.767 191.776 23.42 191.744 27.074 191.729 C30.689 191.714 34.303 191.679 37.917 191.632 C39.924 191.61 41.931 191.608 43.938 191.606 C50.81 191.495 55.468 191.235 61 187 C66.957 180.572 66.412 173.761 66.277 165.473 C66.061 160.273 64.975 156.306 62 152 C61.564 151.358 61.129 150.716 60.68 150.055 C57.274 145.607 53.442 142.515 48 141 C41.746 140.35 35.829 140.409 30 143 C29.68 142.567 29.68 142.567 28.062 140.375 C22.42 133.63 14.995 129.545 6.25 128.75 C-4.936 128.293 -13.438 131.68 -21 140 Z " fill="#6FB52B" transform="translate(82,0)"/>
<path d="M0 0 C4.368 1.562 6.692 4.964 9.438 8.5 C9.958 9.161 10.479 9.823 11.016 10.504 C17.251 18.494 23.14 26.734 29 35 C29.527 35.741 30.053 36.482 30.596 37.246 C31.116 37.978 31.636 38.71 32.172 39.465 C32.685 40.187 33.198 40.909 33.726 41.653 C34.735 43.082 35.736 44.516 36.731 45.954 C38.985 49.21 41.261 52.367 43.82 55.391 C47.891 60.337 50.605 64.338 50.135 71.013 C49.298 77.602 47.204 83.083 44.601 89.148 C42.53 94.052 40.671 99.036 38.793 104.016 C38.42 105.004 38.047 105.992 37.663 107.011 C36.503 110.09 35.345 113.17 34.188 116.25 C33.391 118.363 32.595 120.477 31.799 122.59 C29.864 127.726 27.931 132.863 26 138 C24.281 137.013 22.562 136.027 20.843 135.04 C12.217 130.172 4.149 128.3 -5.727 130.648 C-14.355 133.774 -20.049 138.704 -24.438 146.75 C-27.102 152.469 -27.975 157.724 -28 164 C-28.559 163.843 -29.119 163.685 -29.695 163.523 C-34.338 162.469 -39.435 161.927 -43.914 163.801 C-47.944 166.689 -48.971 170.111 -49.871 174.719 C-50.017 177.307 -49.606 179.489 -49 182 C-56.406 187.214 -61.798 188.665 -70.805 187.566 C-74.338 186.94 -77.623 186.206 -81 185 C-88.919 134.844 -51.207 81.314 -26.056 40.706 C-25.017 39.027 -23.979 37.346 -22.941 35.666 C-15.504 23.634 -7.963 11.692 0 0 Z " fill="#A3C620" transform="translate(82,0)"/>
<path d="M0 0 C-4.921 10.709 -10.335 20.028 -18 29 C-18.286 29.337 -18.286 29.337 -19.734 31.043 C-33.099 45.499 -54.87 56.009 -74.43 57.141 C-100.117 58.045 -123.267 53.484 -143 36 C-143.33 35.34 -143.66 34.68 -144 34 C-143.702 34.003 -143.702 34.003 -142.194 34.019 C-139.315 34.028 -136.44 33.982 -133.562 33.938 C-133.095 33.943 -133.095 33.943 -130.729 33.971 C-119.531 33.719 -109.108 30.203 -98.452 27.027 C-95.006 26.002 -91.554 24.995 -88.1 23.993 C-82.15 22.266 -76.205 20.524 -70.261 18.775 C-66.477 17.662 -62.693 16.553 -58.908 15.444 C-47.857 12.204 -36.81 8.953 -25.781 5.637 C-23.428 4.932 -21.075 4.228 -18.721 3.524 C-16.614 2.891 -14.51 2.248 -12.406 1.604 C-11.794 1.421 -11.794 1.421 -8.691 0.492 C-7.652 0.176 -6.612 -0.14 -5.541 -0.465 C-3 -1 -3 -1 0 0 Z " fill="#3C9F35" transform="translate(174,201)"/>
<path d="M0 0 C4.62 0 9.24 0 14 0 C21.269 23.543 21.269 23.543 24.273 35.43 C25 38 25 38 26 39 C28.64 28.11 31.28 17.22 34 6 C38.95 6 43.9 6 49 6 C49.41 7.796 49.82 9.591 50.242 11.441 C50.786 13.815 51.331 16.189 51.875 18.562 C52.144 19.744 52.414 20.925 52.691 22.143 C52.824 22.718 52.824 22.718 53.492 25.629 C53.733 26.682 53.974 27.734 54.222 28.819 C55.06 32.244 56.012 35.615 57 39 C57.358 37.854 57.717 36.708 58.086 35.528 C59.411 31.291 60.741 27.055 62.072 22.82 C62.648 20.984 63.224 19.147 63.798 17.311 C64.621 14.676 65.449 12.043 66.277 9.41 C66.406 8.997 66.406 8.997 67.057 6.907 C68.886 1.114 68.886 1.114 70 0 C72.186 -0.073 74.375 -0.084 76.562 -0.062 C77.161 -0.058 77.161 -0.058 80.191 -0.035 C81.118 -0.024 82.045 -0.012 83 0 C81.457 7.626 79.233 14.94 76.867 22.348 C76.47 23.6 76.074 24.853 75.665 26.143 C74.62 29.443 73.57 32.742 72.519 36.041 C71.443 39.419 70.372 42.798 69.301 46.178 C67.205 52.787 65.104 59.394 63 66 C58.71 66 54.42 66 50 66 C47.501 56.988 45.256 47.964 43.308 38.817 C42.099 33.199 42.099 33.199 41 31 C40.763 32.025 40.526 33.049 40.281 34.105 C39.404 37.895 38.521 41.683 37.637 45.471 C37.254 47.113 36.873 48.756 36.493 50.398 C35.948 52.755 35.398 55.11 34.848 57.465 C34.678 58.203 34.508 58.942 34.333 59.703 C33.114 64.886 33.114 64.886 32 66 C29.98 66.072 27.958 66.084 25.938 66.062 C24.833 66.053 23.728 66.044 22.59 66.035 C21.735 66.024 20.881 66.012 20 66 C17.261 59.041 15.113 51.953 12.988 44.785 C12.615 43.534 12.242 42.282 11.858 40.993 C11.074 38.362 10.291 35.73 9.51 33.098 C8.508 29.719 7.502 26.341 6.494 22.963 C5.532 19.738 4.573 16.511 3.613 13.285 C3.432 12.677 3.432 12.677 2.515 9.599 C2.184 8.483 1.854 7.368 1.513 6.219 C1.22 5.233 0.927 4.246 0.625 3.23 C0 1 0 1 0 0 Z " style="fill:light-dark(#333334,#ffffff)" transform="translate(198,73)"/>
<path d="M0 0 C32.577 0 32.577 0 37.961 4.719 C38.428 5.307 38.894 5.894 39.375 6.5 C39.857 7.088 40.339 7.676 40.836 8.281 C43.638 12.418 43.196 16.969 43.238 21.762 C43.246 22.626 43.254 23.491 43.263 24.382 C43.277 26.213 43.287 28.045 43.295 29.877 C43.307 31.742 43.327 33.607 43.357 35.471 C43.4 38.173 43.416 40.873 43.426 43.574 C43.443 44.398 43.461 45.223 43.479 46.072 C43.458 51.789 42.312 56.267 39 61 C34.812 64.334 31.346 66.138 25.988 66.098 C25.647 66.096 25.647 66.096 23.919 66.09 C23.059 66.081 22.199 66.072 21.312 66.062 C18.569 66.042 15.826 66.021 13 66 C13 73.59 13 81.18 13 89 C8.71 89 4.42 89 0 89 C0 59.63 0 30.26 0 0 Z M13 13 C12.926 18.214 12.871 23.429 12.835 28.643 C12.82 30.417 12.8 32.192 12.774 33.966 C12.737 36.515 12.72 39.064 12.707 41.613 C12.692 42.407 12.676 43.201 12.66 44.019 C12.658 49.496 12.658 49.496 14.356 51.999 C16.764 53.465 18.704 53.398 21.5 53.375 C22.459 53.383 23.418 53.39 24.406 53.398 C27 53 27 53 28.637 51.952 C30.722 48.966 30.428 45.887 30.398 42.375 C30.401 41.632 30.404 40.888 30.407 40.123 C30.409 38.552 30.404 36.982 30.391 35.412 C30.375 33.009 30.391 30.607 30.41 28.203 C30.408 26.677 30.404 25.151 30.398 23.625 C30.405 22.906 30.411 22.187 30.417 21.447 C30.378 18.677 30.269 16.491 28.924 14.035 C25.907 12.412 23.198 12.719 19.812 12.812 C19.176 12.826 19.176 12.826 15.957 12.895 C14.981 12.929 14.005 12.964 13 13 Z " fill="#6FB52B" transform="translate(489,178)"/>
<path d="M0 0 C4.368 1.562 6.692 4.964 9.438 8.5 C9.958 9.161 10.479 9.823 11.016 10.504 C17.251 18.494 23.14 26.734 29 35 C29.527 35.741 30.053 36.482 30.596 37.246 C31.116 37.978 31.636 38.71 32.172 39.465 C32.685 40.187 33.198 40.909 33.726 41.653 C34.735 43.082 35.736 44.516 36.731 45.954 C38.985 49.21 41.261 52.367 43.82 55.391 C48.176 60.698 50.556 64.656 49.891 71.599 C49.418 74.785 48.775 77.873 48 81 C45.239 80.174 42.48 79.348 39.746 78.434 C34.78 76.786 29.835 75.497 24.727 74.355 C5.566 69.603 5.566 69.603 1.09 63.319 C-1.72 56.907 -2.708 50.222 -3.543 43.312 C-4.23 38.332 -5.589 33.584 -6.938 28.75 C-10.197 16.492 -10.197 16.492 -8.148 12.227 C-7.002 10.302 -5.779 8.464 -4.5 6.625 C-4.071 5.984 -3.641 5.344 -3.199 4.684 C-2.145 3.114 -1.074 1.556 0 0 Z " fill="#AFCC41" transform="translate(82,0)"/>
<path d="M0 0 C4.29 0 8.58 0 13 0 C13 9.9 13 19.8 13 30 C21.125 29.812 21.125 29.812 23.649 29.73 C28.519 29.676 31.782 30.312 36 33 C40.861 38.082 43.261 42.29 43.227 49.341 C43.227 50.382 43.227 51.422 43.227 52.495 C43.216 53.606 43.206 54.718 43.195 55.863 C43.192 57.01 43.19 58.158 43.187 59.339 C43.176 62.997 43.15 66.655 43.125 70.312 C43.115 72.795 43.106 75.277 43.098 77.76 C43.076 83.84 43.041 89.92 43 96 C38.71 96 34.42 96 30 96 C29.67 78.84 29.34 61.68 29 44 C24.38 44 19.76 44 15 44 C13.36 45.64 13.834 47.533 13.795 49.795 C13.775 50.816 13.755 51.837 13.734 52.889 C13.718 53.999 13.701 55.11 13.684 56.254 C13.663 57.384 13.642 58.515 13.621 59.68 C13.555 63.307 13.496 66.935 13.438 70.562 C13.394 73.015 13.351 75.467 13.307 77.92 C13.199 83.947 13.098 89.973 13 96 C8.71 96 4.42 96 0 96 C0 64.32 0 32.64 0 0 Z " style="fill:light-dark(#333334,#ffffff)" transform="translate(437,43)"/>
<path d="M0 0 C0.795 -0.021 1.589 -0.041 2.408 -0.062 C7.433 -0.096 10.836 0.469 15.188 3.25 C21.292 9.494 22.416 14.851 22.368 23.31 C22.349 24.404 22.331 25.498 22.312 26.625 C22.271 30.131 22.23 33.638 22.188 37.25 C12.288 37.25 2.387 37.25 -7.812 37.25 C-6.812 50.25 -6.812 50.25 -4.812 52.25 C-2.535 52.551 -2.535 52.551 0.125 52.562 C0.563 52.571 0.563 52.571 2.777 52.613 C5.188 52.25 5.188 52.25 6.941 50.98 C8.188 49.25 8.188 49.25 9.188 45.25 C13.478 45.25 17.767 45.25 22.188 45.25 C21.896 52.348 21.302 57.107 16.188 62.25 C9.256 67.322 1.474 66.752 -6.812 66.25 C-12.848 65.114 -16.366 61.05 -19.812 56.25 C-21.527 52.821 -21.019 48.889 -21.051 45.113 C-21.059 44.2 -21.067 43.288 -21.075 42.347 C-21.089 40.411 -21.1 38.475 -21.108 36.539 C-21.125 33.591 -21.169 30.645 -21.213 27.697 C-21.223 25.815 -21.232 23.933 -21.238 22.051 C-21.256 21.174 -21.273 20.298 -21.291 19.395 C-21.271 13.492 -20.221 10.1 -16.812 5.25 C-11.385 0.219 -7.032 0.045 0 0 Z M-7.812 15.25 C-8.008 17.633 -8.008 17.633 -7.938 20.375 C-7.896 21.984 -7.855 23.593 -7.812 25.25 C-2.202 25.25 3.408 25.25 9.188 25.25 C9.218 24.538 9.218 24.538 9.375 20.938 C9.41 20.137 9.445 19.336 9.48 18.512 C9.188 16.25 9.188 16.25 8.055 14.477 C5.377 12.718 3.299 12.887 0.125 12.938 C-0.938 12.941 -2.002 12.945 -3.098 12.949 C-5.812 13.25 -5.812 13.25 -7.812 15.25 Z " style="fill:light-dark(#333334,#ffffff)" transform="translate(310.8125,72.75)"/>
<path d="M0 0 C4.375 -0.081 8.749 -0.141 13.125 -0.188 C14.363 -0.213 15.6 -0.238 16.875 -0.264 C18.074 -0.273 19.273 -0.283 20.508 -0.293 C21.608 -0.309 22.707 -0.324 23.84 -0.341 C28.425 0.154 31.691 1.945 35.25 4.812 C40.029 10.786 39.262 17.927 39.195 25.18 C39.192 26.348 39.19 27.515 39.187 28.719 C39.176 32.438 39.15 36.156 39.125 39.875 C39.115 42.401 39.106 44.927 39.098 47.453 C39.076 53.635 39.042 59.818 39 66 C34.998 66.075 30.997 66.129 26.994 66.165 C25.636 66.18 24.277 66.2 22.918 66.226 C13.854 66.396 7.503 66.502 0.188 60.812 C-4.528 54.75 -4.553 47.394 -4 40 C-3.242 33.978 -1.233 30.233 3 26 C5.951 24.192 8.106 23.758 11.547 23.805 C11.969 23.808 11.969 23.808 14.105 23.824 C14.978 23.841 15.851 23.858 16.75 23.875 C17.194 23.88 17.194 23.88 19.441 23.902 C21.628 23.926 23.814 23.962 26 24 C25.34 20.7 24.68 17.4 24 14 C16.08 13.67 8.16 13.34 0 13 C0 8.71 0 4.42 0 0 Z M10 38 C8.85 40.3 8.768 41.815 8.688 44.375 C8.65 45.146 8.613 45.917 8.574 46.711 C9.182 49.979 10.317 51.072 13 53 C16.234 53.391 16.234 53.391 19.75 53.25 C20.781 53.209 20.781 53.209 26 53 C26 47.39 26 41.78 26 36 C24.103 35.959 22.205 35.917 20.25 35.875 C19.183 35.852 18.115 35.829 17.016 35.805 C14.05 35.997 12.448 36.364 10 38 Z " style="fill:light-dark(#333334,#ffffff)" transform="translate(347,73)"/>
<path d="M0 0 C0.795 -0.021 1.589 -0.041 2.408 -0.062 C8.978 -0.106 13.12 1.229 17.938 5.938 C22.787 12.275 22.455 20.149 22.312 27.75 C22.271 30.885 22.23 34.02 22.188 37.25 C11.957 37.25 1.727 37.25 -8.812 37.25 C-7.812 48.25 -7.812 48.25 -6.812 51.25 C-4.359 52.477 -2.613 52.452 0.125 52.5 C0.563 52.513 0.563 52.513 2.777 52.578 C5.188 52.25 5.188 52.25 6.941 50.984 C8.188 49.25 8.188 49.25 9.188 45.25 C13.477 45.25 17.768 45.25 22.188 45.25 C20.443 58.481 20.443 58.481 16.188 62.25 C9.102 67.21 1.591 66.778 -6.812 66.25 C-11.992 65.131 -15.404 62.242 -18.812 58.25 C-20.492 55.405 -21.066 53.328 -21.087 50.036 C-21.092 49.625 -21.092 49.625 -21.116 47.547 C-21.115 46.668 -21.114 45.789 -21.113 44.883 C-21.118 43.97 -21.122 43.058 -21.126 42.118 C-21.132 40.19 -21.133 38.262 -21.128 36.333 C-21.125 33.393 -21.148 30.453 -21.174 27.512 C-21.176 25.635 -21.177 23.759 -21.176 21.883 C-21.185 21.008 -21.194 20.132 -21.204 19.231 C-21.16 13.45 -20.365 9.049 -16.312 4.605 C-10.729 0.258 -6.781 0.043 0 0 Z M-7.688 14.781 C-8.812 17.25 -8.812 17.25 -8.812 25.25 C-2.873 25.25 3.067 25.25 9.188 25.25 C9.188 17.25 9.188 17.25 8.062 14.781 C5.418 12.621 3.567 12.717 0.188 12.75 C-0.864 12.74 -1.916 12.729 -3 12.719 C-5.812 13.25 -5.812 13.25 -7.688 14.781 Z " style="fill:light-dark(#333334,#ffffff)" transform="translate(511.8125,72.75)"/>
<path d="M0 0 C3.337 1.112 3.617 1.508 5.391 4.34 C5.618 4.7 5.618 4.7 6.77 6.525 C7.258 7.321 7.747 8.117 8.25 8.938 C8.507 9.35 8.507 9.35 9.806 11.438 C16.804 22.783 23.558 34.33 30 46 C30.581 47.044 31.161 48.087 31.76 49.163 C33 52 33 52 32 55 C30.147 56.082 30.147 56.082 27.696 57.085 C27.238 57.275 27.238 57.275 24.925 58.237 C23.93 58.637 22.935 59.037 21.91 59.449 C20.895 59.867 19.88 60.284 18.835 60.714 C16.686 61.596 14.534 62.472 12.381 63.344 C9.076 64.682 5.777 66.036 2.479 67.393 C0.394 68.246 -1.692 69.098 -3.777 69.949 C-4.77 70.355 -5.763 70.762 -6.786 71.18 C-7.703 71.551 -8.621 71.922 -9.566 72.303 C-10.376 72.632 -11.186 72.96 -12.02 73.299 C-14 74 -14 74 -16 74 C-16 74.66 -16 75.32 -16 76 C-16.495 76.165 -16.495 76.165 -19 77 C-21.062 74.938 -21.062 74.938 -23 72 C-22.723 65.644 -20.328 60.051 -18.035 54.176 C-17.642 53.152 -17.248 52.128 -16.843 51.073 C-16.014 48.918 -15.18 46.764 -14.344 44.611 C-13.064 41.316 -11.794 38.017 -10.525 34.717 C-9.717 32.62 -8.908 30.523 -8.098 28.426 C-7.717 27.44 -7.337 26.455 -6.945 25.44 C-6.588 24.521 -6.231 23.603 -5.864 22.657 C-5.551 21.853 -5.239 21.048 -4.917 20.218 C-4 18 -4 18 -2.923 15.925 C-1.509 12.976 -1.293 9.977 -0.875 6.75 C-0.707 5.487 -0.54 4.223 -0.367 2.922 C-0.246 1.958 -0.125 0.993 0 0 Z " fill="#83BB24" transform="translate(131,67)"/>
<path d="M0 0 C4.021 -0.081 8.041 -0.141 12.062 -0.188 C12.629 -0.2 12.629 -0.2 15.498 -0.264 C23.003 -0.329 28.383 -0.03 34.312 4.938 C37.447 8.768 38.25 11.554 38.227 16.503 C38.227 17.604 38.227 18.705 38.227 19.839 C38.216 21.021 38.206 22.204 38.195 23.422 C38.192 24.637 38.19 25.852 38.187 27.104 C38.176 30.986 38.15 34.868 38.125 38.75 C38.115 41.382 38.106 44.013 38.098 46.645 C38.076 53.096 38.042 59.548 38 66 C33.837 66.075 29.675 66.129 25.512 66.165 C24.098 66.18 22.684 66.2 21.27 66.226 C19.229 66.263 17.189 66.28 15.148 66.293 C14.536 66.301 14.536 66.301 11.435 66.341 C7.01 65.902 3.655 64.509 0.355 61.5 C-3.992 55.916 -4.207 51.968 -4.25 45.188 C-4.271 44.393 -4.291 43.598 -4.312 42.779 C-4.351 37.03 -3.524 32.767 0.5 28.355 C4.484 25.253 7.21 23.867 12.23 23.902 C12.632 23.904 12.632 23.904 14.662 23.912 C15.495 23.92 16.329 23.929 17.188 23.938 C18.032 23.942 18.877 23.947 19.748 23.951 C21.832 23.963 23.916 23.981 26 24 C25.719 22.519 25.425 21.04 25.125 19.562 C24.963 18.739 24.8 17.915 24.633 17.066 C24.424 16.384 24.215 15.703 24 15 C21.539 13.769 19.742 13.794 16.992 13.684 C16.006 13.642 15.02 13.6 14.004 13.557 C13.488 13.537 13.488 13.537 10.875 13.438 C9.835 13.394 8.794 13.351 7.723 13.307 C5.149 13.2 2.574 13.1 0 13 C0 8.71 0 4.42 0 0 Z M9 39 C8.734 41.75 8.734 41.75 8.75 45 C8.745 46.072 8.74 47.145 8.734 48.25 C9 51 9 51 11 53 C13.59 53.145 16.042 53.186 18.625 53.125 C21.059 53.084 23.493 53.043 26 53 C26 47.72 26 42.44 26 37 C24.783 36.979 24.783 36.979 18.625 36.875 C18.243 36.866 18.243 36.866 16.307 36.82 C11.222 36.778 11.222 36.778 9 39 Z " fill="#70B52B" transform="translate(440,178)"/>
<path d="M0 0 C1.908 0.798 1.908 0.798 4.033 3.11 C6.842 5.736 8.574 6.63 12.088 7.966 C12.99 8.313 13.892 8.66 14.822 9.017 C15.51 9.275 16.199 9.532 16.908 9.798 C17.624 15.117 18.336 20.438 19.044 25.758 C19.286 27.567 19.528 29.376 19.772 31.185 C20.123 33.789 20.469 36.393 20.814 38.997 C20.924 39.802 21.033 40.608 21.146 41.437 C21.648 45.254 22.044 48.938 21.908 52.798 C0.224 54.408 0.224 54.408 -6.662 51.063 C-9.291 48.477 -11.15 45.931 -13.092 42.798 C-13.872 41.697 -14.659 40.601 -15.451 39.509 C-22.496 29.497 -30.092 16.223 -30.092 3.798 C-29.528 3.854 -28.964 3.911 -28.383 3.969 C-25.788 4.212 -23.191 4.411 -20.592 4.61 C-20.148 4.655 -20.148 4.655 -17.904 4.882 C-11.918 5.3 -8.602 4.562 -3.863 0.8 C-2.092 -0.202 -2.092 -0.202 0 0 Z " fill="#5BAF2F" transform="translate(32.091796875,182.202392578125)"/>
<path d="M0 0 C14.171 30.699 14.171 30.699 14.098 43.301 C14.096 43.789 14.096 43.789 14.088 46.26 C14.084 46.763 14.084 46.763 14.062 49.312 C14.058 50.339 14.053 51.366 14.049 52.424 C14.037 54.949 14.021 57.475 14 60 C12.755 59.414 11.51 58.828 10.266 58.242 C9.469 57.867 8.673 57.493 7.852 57.106 C6.108 56.281 4.368 55.45 2.631 54.612 C-1.14 52.797 -4.876 51 -8.793 49.523 C-16.311 46.479 -16.311 46.479 -18.402 41.988 C-19.047 39.719 -19.635 37.432 -20.164 35.133 C-21.726 29.281 -25.404 25.729 -30.438 22.562 C-36.43 19.807 -43.555 20.698 -50 21 C-47.289 18.834 -44.747 17.317 -41.539 16.007 C-41.101 15.827 -41.101 15.827 -38.89 14.916 C-37.954 14.537 -37.019 14.159 -36.055 13.77 C-35.088 13.374 -34.122 12.979 -33.127 12.572 C-31.089 11.739 -29.05 10.91 -27.009 10.083 C-23.877 8.813 -20.749 7.533 -17.621 6.252 C-15.641 5.445 -13.66 4.638 -11.68 3.832 C-10.74 3.448 -9.801 3.063 -8.832 2.667 C-7.965 2.317 -7.097 1.966 -6.203 1.605 C-5.437 1.294 -4.672 0.983 -3.884 0.663 C-2 0 -2 0 0 0 Z " fill="#60AF2E" transform="translate(165,121)"/>
<path d="M0 0 C4.726 0.563 9.454 1.105 14.182 1.649 C23.392 2.711 32.599 3.796 41.804 4.897 C41.969 5.392 41.969 5.392 42.804 7.897 C20.651 19.882 -4.275 24.046 -28.95 17.283 C-41.254 13.472 -52.54 7.453 -62.196 -1.103 C-62.526 -1.763 -62.856 -2.423 -63.196 -3.103 C-41.843 -5.224 -21.19 -2.544 0 0 Z " fill="#2A8D35" transform="translate(93.19647216796875,238.1033935546875)"/>
<path d="M0 0 C4.29 0 8.58 0 13 0 C13 5.94 13 11.88 13 18 C16.96 18 20.92 18 25 18 C25 22.29 25 26.58 25 31 C21.04 31 17.08 31 13 31 C13.118 36.394 13.242 41.787 13.372 47.18 C13.416 49.017 13.457 50.853 13.497 52.689 C13.555 55.323 13.619 57.956 13.684 60.59 C13.7 61.416 13.717 62.242 13.734 63.093 C13.886 68.886 13.886 68.886 15 70 C17.328 70.368 19.662 70.702 22 71 C22 75.29 22 79.58 22 84 C15.286 84.42 10.504 84.068 5 80 C0.161 74.461 -0.704 69.407 -0.488 62.25 C-0.481 61.351 -0.474 60.453 -0.467 59.527 C-0.439 56.684 -0.376 53.842 -0.312 51 C-0.287 49.061 -0.265 47.122 -0.244 45.184 C-0.189 40.455 -0.103 35.728 0 31 C-1.98 31 -3.96 31 -6 31 C-6 26.71 -6 22.42 -6 18 C-4.02 18 -2.04 18 0 18 C0 12.06 0 6.12 0 0 Z " style="fill:light-dark(#333334,#ffffff)" transform="translate(401,55)"/>
<path d="M0 0 C1.076 0.003 2.153 0.006 3.262 0.01 C4.39 0.018 5.518 0.027 6.68 0.035 C7.815 0.04 8.951 0.044 10.121 0.049 C12.932 0.061 15.744 0.079 18.555 0.098 C18.555 4.388 18.555 8.678 18.555 13.098 C13.605 13.098 8.655 13.098 3.555 13.098 C3.555 30.588 3.555 48.078 3.555 66.098 C-0.735 66.098 -5.025 66.098 -9.445 66.098 C-9.491 58.213 -9.527 50.329 -9.549 42.445 C-9.559 38.784 -9.574 35.123 -9.596 31.461 C-9.618 27.928 -9.63 24.394 -9.635 20.86 C-9.641 18.857 -9.656 16.854 -9.672 14.851 C-9.672 13.63 -9.672 12.409 -9.672 11.151 C-9.677 10.077 -9.681 9.002 -9.686 7.894 C-9.443 5.076 -8.993 3.445 -7.445 1.098 C-4.836 -0.207 -2.918 -0.015 0 0 Z " style="fill:light-dark(#333334,#ffffff)" transform="translate(553.4453125,72.90234375)"/>
<path d="M0 0 C4.29 0 8.58 0 13 0 C13 21.78 13 43.56 13 66 C8.71 66 4.42 66 0 66 C0 44.22 0 22.44 0 0 Z " fill="#6FB52B" transform="translate(544,178)"/>
<path d="M0 0 C9.13 2.628 18.119 5.669 27.125 8.688 C28.669 9.204 30.213 9.72 31.758 10.236 C35.506 11.489 39.253 12.744 43 14 C39.001 22.51 29.724 28.084 22.417 33.748 C16.117 38.643 10.052 43.803 4 49 C3.34 48.67 2.68 48.34 2 48 C2.308 47.299 2.616 46.598 2.934 45.876 C4.324 42.694 5.693 39.504 7.062 36.312 C7.548 35.21 8.033 34.107 8.533 32.971 C8.988 31.904 9.442 30.837 9.91 29.738 C10.334 28.759 10.759 27.78 11.196 26.771 C12.345 22.813 11.721 20.415 9.877 16.796 C9.421 16.074 8.966 15.353 8.496 14.609 C8.25 14.214 8.25 14.214 7.002 12.211 C6.486 11.399 5.969 10.587 5.438 9.75 C4.414 8.121 3.391 6.491 2.371 4.859 C1.917 4.142 1.462 3.425 0.994 2.687 C0 1 0 1 0 0 Z " fill="#BED01B" transform="translate(86,66)"/>
<path d="M0 0 C2.443 1.372 4.914 2.691 7.383 4.016 C8.665 4.715 9.946 5.415 11.227 6.117 C13.196 7.195 15.166 8.272 17.139 9.343 C19.077 10.395 21.012 11.455 22.945 12.516 C23.515 12.826 23.515 12.826 26.399 14.399 C29 16 29 16 30 18 C6.177 19.086 -15.866 13.068 -34 -3 C-34.33 -3.66 -34.66 -4.32 -35 -5 C-31.232 -5.347 -27.462 -5.617 -23.688 -5.875 C-22.635 -5.973 -21.582 -6.071 -20.498 -6.172 C-11.914 -6.7 -7.151 -4.499 0 0 Z " fill="#3C9A34" transform="translate(65,240)"/>
<path d="M0 0 C7.92 0 15.84 0 24 0 C25.94 4.528 27.482 8.288 28.688 12.938 C28.939 13.895 29.19 14.853 29.449 15.84 C29.631 16.553 29.813 17.266 30 18 C18.541 14.619 8.861 9.054 0 1 C0 0.67 0 0.34 0 0 Z " fill="#2D8131" transform="translate(30,235)"/>
<path d="M0 0 C2.042 0.142 4.084 0.289 6.125 0.438 C6.693 0.478 6.693 0.478 9.57 0.684 C12.754 0.977 15.855 1.431 19 2 C17.472 7.099 15.29 11.657 12.875 16.375 C12.502 17.111 12.13 17.847 11.746 18.605 C10.834 20.406 9.918 22.203 9 24 C2.759 18.174 0.489 8.31 0 0 Z " fill="#79B828" transform="translate(2,186)"/>
<path d="M0 0 C1.906 0.484 1.906 0.484 4.406 2.609 C6.153 5.958 6.461 7.76 5.906 11.484 C4.844 13.797 4.844 13.797 2.906 15.484 C-1.067 16.588 -3.184 16.9 -6.969 15.172 C-9.094 13.484 -9.094 13.484 -10.094 11.484 C-10.5 7.829 -10.308 5.895 -8.594 2.609 C-5.565 0.035 -3.887 -0.261 0 0 Z " fill="#70B52B" transform="translate(553.09375,152.515625)"/>
<path d="M0 0 C4.184 1.395 5.507 4.367 7.75 7.938 C8.174 8.584 8.598 9.23 9.035 9.896 C10.093 11.555 11.055 13.275 12 15 C11.67 15.66 11.34 16.32 11 17 C7.04 16.01 3.08 15.02 -1 14 C-1.083 9.167 -0.953 4.763 0 0 Z " fill="#91C023" transform="translate(131,67)"/>
<path d="M0 0 C3.875 1.75 3.875 1.75 5 4 C3.02 4 1.04 4 -1 4 C-0.67 2.68 -0.34 1.36 0 0 Z " fill="#BDD785" transform="translate(82,0)"/>
</svg>